<?xml version="1.0" encoding="utf-8"?>
<!-- Generator: Adobe Illustrator 23.0.3, SVG Export Plug-In . SVG Version: 6.00 Build 0)  -->
<svg version="1.1" id="Layer_1" xmlns="http://www.w3.org/2000/svg" xmlns:xlink="http://www.w3.org/1999/xlink" x="0px" y="0px"
	 viewBox="0 0 24 24" style="enable-background:new 0 0 24 24;" xml:space="preserve">
<style type="text/css">
	.st0{fill:none;stroke:#000000;stroke-miterlimit:10;}
</style>
<title  id="dangerIconTitle">Danger</title>
<desc  id="dangerIconDesc">Icon of an exclamation mark on a triangular board</desc>
<g>
	<path class="st0" d="M15.6,15.3c0.5-0.3,1.1-0.4,1.7-0.4V9c-1.1-0.1-2.1-0.7-2.7-1.7v0l-5.9,3.4l0,0c0.6,1,0.6,2.2,0.1,3.2l5.5,3.2
		C14.5,16.4,14.9,15.7,15.6,15.3z"/>
	<path class="st0" d="M8.6,10.7C7.7,9.1,5.8,8.6,4.3,9.4c-1.5,0.9-2,2.9-1,4.5c0.9,1.6,2.9,2.2,4.4,1.3c0.5-0.3,0.9-0.7,1.2-1.3"/>
	<path class="st0" d="M17.3,9c0.6,0,1.2-0.1,1.7-0.4c1.5-0.9,2-2.9,1-4.5S17.1,2,15.6,2.9c-1.5,0.9-2,2.9-1,4.5"/>
	<path class="st0" d="M14.2,17.1c-0.3,0.9-0.2,1.8,0.3,2.7c0.9,1.6,2.9,2.2,4.4,1.3c1.5-0.9,2-2.9,1-4.5c-0.6-1-1.6-1.6-2.7-1.7"/>
</g>
</svg>
