<?xml version="1.0" encoding="UTF-8"?>
<svg id="Layer_1" data-name="Layer 1" xmlns="http://www.w3.org/2000/svg" viewBox="0 0 532.39 180.07">
  <defs>
    <style>
      .cls-1 {
        fill: #5ac09e;
      }
    </style>
  </defs>
  <path class="cls-1" d="M42.63,0c24.63,0,42.63,18.23,42.63,41.59s-18,42.62-42.63,42.62S0,65.52,0,41.59,18.05,0,42.63,0ZM42.63,66.04c12.17,0,21.98-10.5,21.98-24.4s-9.81-23.36-21.98-23.36-21.98,10.04-21.98,23.36,9.81,24.4,21.98,24.4Z"/>
  <path class="cls-1" d="M92,1.38h33.86c15.86,0,26.53,11.65,26.53,28.03s-10.73,28.26-26.53,28.26h-13.9v25.2h-19.96V1.38ZM121.71,40.6c6.98,0,10.38-4.67,10.38-11.19s-3.4-10.96-10.04-10.96h-10.15v22.09h9.81v.06Z"/>
  <path class="cls-1" d="M161.97,1.38h52.66v17.07h-32.7v14.82h32.7v17.07h-32.7v15.4h32.7v17.07h-52.66V1.38Z"/>
  <path class="cls-1" d="M224.38,1.38h20.19l22.55,38.07c3.17,5.36,6.86,13.9,6.86,13.9h.23s-.92-8.77-.92-13.9V1.38h19.96v81.5h-20.07l-22.67-37.95c-3.17-5.36-6.86-13.9-6.86-13.9h-.23s.92,8.77.92,13.9v37.95h-19.96V1.38Z"/>
  <path class="cls-1" d="M5.6,98.57h28.38c8.31,0,12.29.58,15.86,1.96,9.23,3.52,15.05,11.88,15.05,23.71,0,8.65-4.1,18.11-12.17,22.21v.23s1.15,1.5,3.06,4.9l15.86,28.49h-22.21l-14.48-27.45h-9.34v27.45H5.65v-81.5h-.06ZM34.21,135.48c6.4,0,10.38-3.52,10.38-10.04,0-6.17-2.31-9.81-12.29-9.81h-6.75v19.84h8.65Z"/>
  <path class="cls-1" d="M78.73,98.57h52.66v17.07h-32.7v14.82h32.7v17.07h-32.7v15.4h32.7v17.07h-52.66v-81.44Z"/>
  <path class="cls-1" d="M141.2,98.57h49.95v17.07h-29.99v17.07h29.99v17.07h-29.99v30.22h-19.96v-81.44Z"/>
  <path class="cls-1" d="M201.48,98.57h52.66v17.07h-32.7v14.82h32.7v17.07h-32.7v15.4h32.7v17.07h-52.66v-81.44Z"/>
  <path class="cls-1" d="M263.95,98.57h28.38c8.31,0,12.29.58,15.86,1.96,9.23,3.52,15.05,11.88,15.05,23.71,0,8.65-4.1,18.11-12.17,22.21v.23s1.15,1.5,3.06,4.9l15.86,28.49h-22.21l-14.48-27.45h-9.34v27.45h-19.96v-81.5h-.06ZM292.56,135.48c6.4,0,10.38-3.52,10.38-10.04,0-6.17-2.25-9.81-12.29-9.81h-6.75v19.84h8.65Z"/>
  <path class="cls-1" d="M446.85,162.94h-25.44l-4.9,17.07h-20.54l27.69-81.5h21l27.68,81.5h-20.53l-4.96-17.07ZM434.04,117.14s-1.84,8.88-3.29,14.02l-4.67,15.86h16.09l-4.56-15.86c-1.5-5.13-3.29-14.02-3.29-14.02h-.29Z"/>
  <path class="cls-1" d="M390.56,178.17l3.52-10.32-9.11-16.32c-1.96-3.4-3.06-4.9-3.06-4.9v-.23c8.07-4.09,12.23-13.55,12.23-22.21,0-11.82-5.83-20.19-15.05-23.71-3.52-1.38-7.5-1.96-15.86-1.96h-28.38v81.5h19.96v-27.45h9.34l14.48,27.45h11.31l.64-1.85ZM363.39,135.48h-8.65v-19.84h6.75c10.04,0,12.29,3.63,12.29,9.81s-3.98,10.04-10.38,10.04Z"/>
  <path class="cls-1" d="M479.15,98.57h19.96v64.37h33.28v17.07h-53.24v-81.44Z"/>
  <path class="cls-1" d="M532.39,1.38h-222.07v17.07h222.07V1.38Z"/>
  <path class="cls-1" d="M532.39,65.81h-222.07v17.07h222.07v-17.07Z"/>
  <path class="cls-1" d="M532.39,33.28h-222.07v17.07h222.07v-17.07Z"/>
</svg>