<svg width="367" height="368" viewBox="0 0 367 368" fill="none" xmlns="http://www.w3.org/2000/svg">
<rect width="367" height="368" fill="white"/>
<rect x="14" y="14" width="132" height="86" rx="7" stroke="#5AC09E" stroke-width="2"/>
<path d="M40.9531 49.1191C40.9531 47.4557 41.3997 46.1546 42.293 45.2158C43.1862 44.2725 44.3392 43.8008 45.752 43.8008C46.6771 43.8008 47.5111 44.0218 48.2539 44.4639C48.9967 44.9059 49.5618 45.5234 49.9492 46.3164C50.3411 47.1048 50.5371 48.0003 50.5371 49.0029C50.5371 50.0192 50.332 50.9284 49.9219 51.7305C49.5117 52.5326 48.9307 53.141 48.1787 53.5557C47.4268 53.9658 46.6156 54.1709 45.7451 54.1709C44.8018 54.1709 43.9587 53.943 43.2158 53.4873C42.473 53.0316 41.9102 52.4095 41.5273 51.6211C41.1445 50.8327 40.9531 49.9987 40.9531 49.1191ZM42.3203 49.1396C42.3203 50.3473 42.6439 51.2998 43.291 51.9971C43.9427 52.6898 44.7585 53.0361 45.7383 53.0361C46.7363 53.0361 47.5566 52.6852 48.1992 51.9834C48.8464 51.2816 49.1699 50.2858 49.1699 48.9961C49.1699 48.1803 49.0309 47.4694 48.7529 46.8633C48.4795 46.2526 48.0762 45.7809 47.543 45.4482C47.0143 45.111 46.4196 44.9424 45.7588 44.9424C44.82 44.9424 44.0111 45.266 43.332 45.9131C42.6576 46.5557 42.3203 47.6312 42.3203 49.1396ZM52.082 54V46.7402H53.1895V47.8408C53.472 47.3258 53.7318 46.9863 53.9688 46.8223C54.2103 46.6582 54.4746 46.5762 54.7617 46.5762C55.1764 46.5762 55.598 46.7083 56.0264 46.9727L55.6025 48.1143C55.3018 47.9365 55.001 47.8477 54.7002 47.8477C54.4313 47.8477 54.1898 47.9297 53.9756 48.0938C53.7614 48.2533 53.6087 48.4766 53.5176 48.7637C53.3809 49.2012 53.3125 49.6797 53.3125 50.1992V54H52.082ZM56.5322 54.6016L57.7285 54.7793C57.7786 55.1484 57.9176 55.4173 58.1455 55.5859C58.4508 55.8138 58.8678 55.9277 59.3965 55.9277C59.9661 55.9277 60.4059 55.8138 60.7158 55.5859C61.0257 55.3581 61.2354 55.0391 61.3447 54.6289C61.4085 54.3783 61.4382 53.8519 61.4336 53.0498C60.8958 53.6833 60.2259 54 59.4238 54C58.4258 54 57.6533 53.64 57.1064 52.9199C56.5596 52.1999 56.2861 51.3363 56.2861 50.3291C56.2861 49.6364 56.4115 48.9984 56.6621 48.415C56.9128 47.8271 57.2751 47.3737 57.749 47.0547C58.2275 46.7357 58.7881 46.5762 59.4307 46.5762C60.2874 46.5762 60.9938 46.9225 61.5498 47.6152V46.7402H62.6846V53.0156C62.6846 54.1458 62.5684 54.9456 62.3359 55.415C62.1081 55.889 61.7435 56.2627 61.2422 56.5361C60.7454 56.8096 60.1325 56.9463 59.4033 56.9463C58.5374 56.9463 57.8379 56.7503 57.3047 56.3584C56.7715 55.971 56.514 55.3854 56.5322 54.6016ZM57.5508 50.2402C57.5508 51.1927 57.7399 51.8877 58.1182 52.3252C58.4964 52.7627 58.9704 52.9814 59.54 52.9814C60.1051 52.9814 60.5791 52.765 60.9619 52.332C61.3447 51.8945 61.5361 51.2109 61.5361 50.2812C61.5361 49.3926 61.3379 48.7227 60.9414 48.2715C60.5495 47.8203 60.0755 47.5947 59.5195 47.5947C58.9727 47.5947 58.5078 47.818 58.125 48.2646C57.7422 48.7067 57.5508 49.3652 57.5508 50.2402ZM69.2881 53.1045C68.8324 53.4919 68.3926 53.7653 67.9688 53.9248C67.5495 54.0843 67.0983 54.1641 66.6152 54.1641C65.8177 54.1641 65.2048 53.9704 64.7764 53.583C64.348 53.1911 64.1338 52.6921 64.1338 52.0859C64.1338 51.7305 64.2135 51.4069 64.373 51.1152C64.5371 50.819 64.749 50.582 65.0088 50.4043C65.2731 50.2266 65.5693 50.0921 65.8975 50.001C66.139 49.9372 66.5036 49.8757 66.9912 49.8164C67.9847 49.6979 68.7161 49.5566 69.1855 49.3926C69.1901 49.224 69.1924 49.1169 69.1924 49.0713C69.1924 48.57 69.0762 48.2168 68.8438 48.0117C68.5293 47.7337 68.0622 47.5947 67.4424 47.5947C66.8636 47.5947 66.4352 47.6973 66.1572 47.9023C65.8838 48.1029 65.681 48.4606 65.5488 48.9756L64.3457 48.8115C64.4551 48.2965 64.6351 47.8818 64.8857 47.5674C65.1364 47.2484 65.4987 47.0046 65.9727 46.8359C66.4466 46.6628 66.9958 46.5762 67.6201 46.5762C68.2399 46.5762 68.7435 46.6491 69.1309 46.7949C69.5182 46.9408 69.8031 47.1253 69.9854 47.3486C70.1676 47.5674 70.2952 47.8454 70.3682 48.1826C70.4092 48.3923 70.4297 48.7705 70.4297 49.3174V50.958C70.4297 52.1019 70.4548 52.8265 70.5049 53.1318C70.5596 53.4326 70.6644 53.722 70.8193 54H69.5342C69.4066 53.7448 69.3245 53.4463 69.2881 53.1045ZM69.1855 50.3564C68.7389 50.5387 68.069 50.6937 67.1758 50.8213C66.6699 50.8942 66.3122 50.9762 66.1025 51.0674C65.8929 51.1585 65.7311 51.293 65.6172 51.4707C65.5033 51.6439 65.4463 51.8376 65.4463 52.0518C65.4463 52.3799 65.5693 52.6533 65.8154 52.8721C66.0661 53.0908 66.4307 53.2002 66.9092 53.2002C67.3831 53.2002 67.8047 53.0977 68.1738 52.8926C68.543 52.6829 68.8141 52.3981 68.9873 52.0381C69.1195 51.7601 69.1855 51.3499 69.1855 50.8076V50.3564ZM72.3438 54V46.7402H73.4512V47.7725C73.9844 46.9749 74.7546 46.5762 75.7617 46.5762C76.1992 46.5762 76.6003 46.6559 76.9648 46.8154C77.334 46.9704 77.6097 47.1755 77.792 47.4307C77.9743 47.6859 78.1019 47.9889 78.1748 48.3398C78.2204 48.5677 78.2432 48.9665 78.2432 49.5361V54H77.0127V49.584C77.0127 49.0827 76.9648 48.709 76.8691 48.4629C76.7734 48.2122 76.6025 48.014 76.3564 47.8682C76.1149 47.7178 75.8301 47.6426 75.502 47.6426C74.9779 47.6426 74.5244 47.8089 74.1416 48.1416C73.7633 48.4743 73.5742 49.1055 73.5742 50.0352V54H72.3438ZM80.1436 45.3936V43.9785H81.374V45.3936H80.1436ZM80.1436 54V46.7402H81.374V54H80.1436ZM82.7617 51.833L83.9785 51.6416C84.0469 52.1292 84.236 52.5029 84.5459 52.7627C84.8604 53.0225 85.2979 53.1523 85.8584 53.1523C86.4235 53.1523 86.8428 53.0384 87.1162 52.8105C87.3896 52.5781 87.5264 52.307 87.5264 51.9971C87.5264 51.7191 87.4056 51.5003 87.1641 51.3408C86.9954 51.2314 86.5762 51.0924 85.9062 50.9238C85.0039 50.696 84.3773 50.5 84.0264 50.3359C83.68 50.1673 83.4157 49.9372 83.2334 49.6455C83.0557 49.3493 82.9668 49.0234 82.9668 48.668C82.9668 48.3444 83.0397 48.0459 83.1855 47.7725C83.3359 47.4945 83.5387 47.2643 83.7939 47.082C83.9854 46.9408 84.2451 46.8223 84.5732 46.7266C84.9059 46.6263 85.2614 46.5762 85.6396 46.5762C86.2093 46.5762 86.7083 46.6582 87.1367 46.8223C87.5697 46.9863 87.8887 47.2096 88.0938 47.4922C88.2988 47.7702 88.4401 48.1439 88.5176 48.6133L87.3145 48.7773C87.2598 48.4036 87.1003 48.112 86.8359 47.9023C86.5762 47.6927 86.207 47.5879 85.7285 47.5879C85.1634 47.5879 84.7601 47.6813 84.5186 47.8682C84.277 48.055 84.1562 48.2738 84.1562 48.5244C84.1562 48.6839 84.2064 48.8275 84.3066 48.9551C84.4069 49.0872 84.5641 49.1966 84.7783 49.2832C84.9014 49.3288 85.2637 49.4336 85.8652 49.5977C86.7357 49.8301 87.3418 50.0215 87.6836 50.1719C88.0299 50.3177 88.3011 50.5319 88.4971 50.8145C88.693 51.097 88.791 51.4479 88.791 51.8672C88.791 52.2773 88.6702 52.6647 88.4287 53.0293C88.1917 53.3893 87.8477 53.6696 87.3965 53.8701C86.9453 54.0661 86.4349 54.1641 85.8652 54.1641C84.9219 54.1641 84.2018 53.9681 83.7051 53.5762C83.2129 53.1842 82.8984 52.6032 82.7617 51.833ZM94.9912 53.1045C94.5355 53.4919 94.0957 53.7653 93.6719 53.9248C93.2526 54.0843 92.8014 54.1641 92.3184 54.1641C91.5208 54.1641 90.9079 53.9704 90.4795 53.583C90.0511 53.1911 89.8369 52.6921 89.8369 52.0859C89.8369 51.7305 89.9167 51.4069 90.0762 51.1152C90.2402 50.819 90.4521 50.582 90.7119 50.4043C90.9762 50.2266 91.2725 50.0921 91.6006 50.001C91.8421 49.9372 92.2067 49.8757 92.6943 49.8164C93.6878 49.6979 94.4193 49.5566 94.8887 49.3926C94.8932 49.224 94.8955 49.1169 94.8955 49.0713C94.8955 48.57 94.7793 48.2168 94.5469 48.0117C94.2324 47.7337 93.7653 47.5947 93.1455 47.5947C92.5667 47.5947 92.1383 47.6973 91.8604 47.9023C91.5869 48.1029 91.3841 48.4606 91.252 48.9756L90.0488 48.8115C90.1582 48.2965 90.3382 47.8818 90.5889 47.5674C90.8395 47.2484 91.2018 47.0046 91.6758 46.8359C92.1497 46.6628 92.6989 46.5762 93.3232 46.5762C93.943 46.5762 94.4466 46.6491 94.834 46.7949C95.2214 46.9408 95.5062 47.1253 95.6885 47.3486C95.8708 47.5674 95.9984 47.8454 96.0713 48.1826C96.1123 48.3923 96.1328 48.7705 96.1328 49.3174V50.958C96.1328 52.1019 96.1579 52.8265 96.208 53.1318C96.2627 53.4326 96.3675 53.722 96.5225 54H95.2373C95.1097 53.7448 95.0277 53.4463 94.9912 53.1045ZM94.8887 50.3564C94.4421 50.5387 93.7721 50.6937 92.8789 50.8213C92.373 50.8942 92.0153 50.9762 91.8057 51.0674C91.596 51.1585 91.4342 51.293 91.3203 51.4707C91.2064 51.6439 91.1494 51.8376 91.1494 52.0518C91.1494 52.3799 91.2725 52.6533 91.5186 52.8721C91.7692 53.0908 92.1338 53.2002 92.6123 53.2002C93.0863 53.2002 93.5078 53.0977 93.877 52.8926C94.2461 52.6829 94.5173 52.3981 94.6904 52.0381C94.8226 51.7601 94.8887 51.3499 94.8887 50.8076V50.3564ZM100.733 52.8994L100.911 53.9863C100.565 54.0592 100.255 54.0957 99.9814 54.0957C99.5348 54.0957 99.1885 54.0251 98.9424 53.8838C98.6963 53.7425 98.5231 53.5579 98.4229 53.3301C98.3226 53.0977 98.2725 52.6123 98.2725 51.874V47.6973H97.3701V46.7402H98.2725V44.9424L99.4961 44.2041V46.7402H100.733V47.6973H99.4961V51.9424C99.4961 52.2933 99.5166 52.5189 99.5576 52.6191C99.6032 52.7194 99.6738 52.7992 99.7695 52.8584C99.8698 52.9176 100.011 52.9473 100.193 52.9473C100.33 52.9473 100.51 52.9313 100.733 52.8994ZM101.95 45.3936V43.9785H103.181V45.3936H101.95ZM101.95 54V46.7402H103.181V54H101.95ZM104.603 50.3701C104.603 49.0257 104.976 48.0299 105.724 47.3828C106.348 46.8451 107.109 46.5762 108.007 46.5762C109.005 46.5762 109.821 46.9043 110.454 47.5605C111.088 48.2122 111.404 49.1146 111.404 50.2676C111.404 51.2018 111.263 51.9378 110.98 52.4756C110.702 53.0088 110.295 53.4235 109.757 53.7197C109.224 54.016 108.64 54.1641 108.007 54.1641C106.991 54.1641 106.168 53.8382 105.539 53.1865C104.915 52.5348 104.603 51.596 104.603 50.3701ZM105.867 50.3701C105.867 51.2998 106.07 51.9971 106.476 52.4619C106.881 52.9222 107.392 53.1523 108.007 53.1523C108.618 53.1523 109.126 52.9199 109.531 52.4551C109.937 51.9902 110.14 51.2816 110.14 50.3291C110.14 49.4313 109.935 48.7523 109.524 48.292C109.119 47.8271 108.613 47.5947 108.007 47.5947C107.392 47.5947 106.881 47.8249 106.476 48.2852C106.07 48.7454 105.867 49.4404 105.867 50.3701ZM112.854 54V46.7402H113.961V47.7725C114.494 46.9749 115.264 46.5762 116.271 46.5762C116.709 46.5762 117.11 46.6559 117.475 46.8154C117.844 46.9704 118.119 47.1755 118.302 47.4307C118.484 47.6859 118.612 47.9889 118.685 48.3398C118.73 48.5677 118.753 48.9665 118.753 49.5361V54H117.522V49.584C117.522 49.0827 117.475 48.709 117.379 48.4629C117.283 48.2122 117.112 48.014 116.866 47.8682C116.625 47.7178 116.34 47.6426 116.012 47.6426C115.488 47.6426 115.034 47.8089 114.651 48.1416C114.273 48.4743 114.084 49.1055 114.084 50.0352V54H112.854ZM29.1748 72.9463C28.4958 72.0895 27.9215 71.0869 27.4521 69.9385C26.9827 68.79 26.748 67.6006 26.748 66.3701C26.748 65.2855 26.9235 64.2464 27.2744 63.2529C27.6846 62.0999 28.318 60.9515 29.1748 59.8076H30.0566C29.5052 60.7555 29.1406 61.4323 28.9629 61.8379C28.6849 62.4668 28.4661 63.123 28.3066 63.8066C28.1107 64.6589 28.0127 65.5156 28.0127 66.377C28.0127 68.569 28.694 70.7588 30.0566 72.9463H29.1748ZM30.9932 67.833L32.21 67.6416C32.2783 68.1292 32.4674 68.5029 32.7773 68.7627C33.0918 69.0225 33.5293 69.1523 34.0898 69.1523C34.6549 69.1523 35.0742 69.0384 35.3477 68.8105C35.6211 68.5781 35.7578 68.307 35.7578 67.9971C35.7578 67.7191 35.637 67.5003 35.3955 67.3408C35.2269 67.2314 34.8076 67.0924 34.1377 66.9238C33.2354 66.696 32.6087 66.5 32.2578 66.3359C31.9115 66.1673 31.6471 65.9372 31.4648 65.6455C31.2871 65.3493 31.1982 65.0234 31.1982 64.668C31.1982 64.3444 31.2712 64.0459 31.417 63.7725C31.5674 63.4945 31.7702 63.2643 32.0254 63.082C32.2168 62.9408 32.4766 62.8223 32.8047 62.7266C33.1374 62.6263 33.4928 62.5762 33.8711 62.5762C34.4408 62.5762 34.9398 62.6582 35.3682 62.8223C35.8011 62.9863 36.1201 63.2096 36.3252 63.4922C36.5303 63.7702 36.6715 64.1439 36.749 64.6133L35.5459 64.7773C35.4912 64.4036 35.3317 64.112 35.0674 63.9023C34.8076 63.6927 34.4385 63.5879 33.96 63.5879C33.3949 63.5879 32.9915 63.6813 32.75 63.8682C32.5085 64.055 32.3877 64.2738 32.3877 64.5244C32.3877 64.6839 32.4378 64.8275 32.5381 64.9551C32.6383 65.0872 32.7956 65.1966 33.0098 65.2832C33.1328 65.3288 33.4951 65.4336 34.0967 65.5977C34.9671 65.8301 35.5732 66.0215 35.915 66.1719C36.2614 66.3177 36.5326 66.5319 36.7285 66.8145C36.9245 67.097 37.0225 67.4479 37.0225 67.8672C37.0225 68.2773 36.9017 68.6647 36.6602 69.0293C36.4232 69.3893 36.0791 69.6696 35.6279 69.8701C35.1768 70.0661 34.6663 70.1641 34.0967 70.1641C33.1533 70.1641 32.4333 69.9681 31.9365 69.5762C31.4443 69.1842 31.1299 68.6032 30.9932 67.833ZM43.4551 67.6621L44.7266 67.8193C44.526 68.5622 44.1546 69.1387 43.6123 69.5488C43.07 69.959 42.3773 70.1641 41.5342 70.1641C40.4723 70.1641 39.6292 69.8382 39.0049 69.1865C38.3851 68.5303 38.0752 67.612 38.0752 66.4316C38.0752 65.2103 38.3896 64.2624 39.0186 63.5879C39.6475 62.9134 40.4632 62.5762 41.4658 62.5762C42.4365 62.5762 43.2295 62.9066 43.8447 63.5674C44.46 64.2282 44.7676 65.1579 44.7676 66.3564C44.7676 66.4294 44.7653 66.5387 44.7607 66.6846H39.3467C39.3923 67.4821 39.6178 68.0928 40.0234 68.5166C40.429 68.9404 40.9349 69.1523 41.541 69.1523C41.9922 69.1523 42.3773 69.0339 42.6963 68.7969C43.0153 68.5599 43.2682 68.1816 43.4551 67.6621ZM39.415 65.6729H43.4688C43.4141 65.0622 43.2591 64.6042 43.0039 64.2988C42.612 63.8249 42.1038 63.5879 41.4795 63.5879C40.9144 63.5879 40.4382 63.777 40.0508 64.1553C39.668 64.5335 39.4561 65.0394 39.415 65.6729ZM46.2646 70V62.7402H47.3721V63.8408C47.6546 63.3258 47.9144 62.9863 48.1514 62.8223C48.3929 62.6582 48.6572 62.5762 48.9443 62.5762C49.359 62.5762 49.7806 62.7083 50.209 62.9727L49.7852 64.1143C49.4844 63.9365 49.1836 63.8477 48.8828 63.8477C48.6139 63.8477 48.3724 63.9297 48.1582 64.0938C47.944 64.2533 47.7913 64.4766 47.7002 64.7637C47.5635 65.2012 47.4951 65.6797 47.4951 66.1992V70H46.2646ZM52.957 70L50.1953 62.7402H51.4941L53.0527 67.0879C53.2214 67.5573 53.3763 68.0449 53.5176 68.5508C53.627 68.168 53.7796 67.7077 53.9756 67.1699L55.5889 62.7402H56.8535L54.1055 70H52.957ZM57.9473 61.3936V59.9785H59.1777V61.3936H57.9473ZM57.9473 70V62.7402H59.1777V70H57.9473ZM65.7949 67.3408L67.0049 67.498C66.8727 68.332 66.5332 68.986 65.9863 69.46C65.444 69.9294 64.7764 70.1641 63.9834 70.1641C62.9899 70.1641 62.1901 69.8405 61.584 69.1934C60.9824 68.5417 60.6816 67.6097 60.6816 66.3975C60.6816 65.6136 60.8115 64.9277 61.0713 64.3398C61.3311 63.752 61.7253 63.3122 62.2539 63.0205C62.7871 62.7243 63.3659 62.5762 63.9902 62.5762C64.7786 62.5762 65.4235 62.7767 65.9248 63.1777C66.4261 63.5742 66.7474 64.1393 66.8887 64.873L65.6924 65.0576C65.5785 64.57 65.3757 64.2031 65.084 63.957C64.7969 63.7109 64.4482 63.5879 64.0381 63.5879C63.4183 63.5879 62.9147 63.8112 62.5273 64.2578C62.14 64.6999 61.9463 65.4017 61.9463 66.3633C61.9463 67.3385 62.1331 68.0472 62.5068 68.4893C62.8805 68.9313 63.3682 69.1523 63.9697 69.1523C64.4528 69.1523 64.8561 69.0042 65.1797 68.708C65.5033 68.4118 65.7083 67.9561 65.7949 67.3408ZM73.0273 67.6621L74.2988 67.8193C74.0983 68.5622 73.7269 69.1387 73.1846 69.5488C72.6423 69.959 71.9495 70.1641 71.1064 70.1641C70.0446 70.1641 69.2015 69.8382 68.5771 69.1865C67.9574 68.5303 67.6475 67.612 67.6475 66.4316C67.6475 65.2103 67.9619 64.2624 68.5908 63.5879C69.2197 62.9134 70.0355 62.5762 71.0381 62.5762C72.0088 62.5762 72.8018 62.9066 73.417 63.5674C74.0322 64.2282 74.3398 65.1579 74.3398 66.3564C74.3398 66.4294 74.3376 66.5387 74.333 66.6846H68.9189C68.9645 67.4821 69.1901 68.0928 69.5957 68.5166C70.0013 68.9404 70.5072 69.1523 71.1133 69.1523C71.5645 69.1523 71.9495 69.0339 72.2686 68.7969C72.5876 68.5599 72.8405 68.1816 73.0273 67.6621ZM68.9873 65.6729H73.041C72.9863 65.0622 72.8314 64.6042 72.5762 64.2988C72.1842 63.8249 71.6761 63.5879 71.0518 63.5879C70.4867 63.5879 70.0104 63.777 69.623 64.1553C69.2402 64.5335 69.0283 65.0394 68.9873 65.6729ZM79.7471 72.7822V62.7402H80.8682V63.6836C81.1325 63.3145 81.431 63.0387 81.7637 62.8564C82.0964 62.6696 82.4997 62.5762 82.9736 62.5762C83.5934 62.5762 84.1403 62.7357 84.6143 63.0547C85.0882 63.3737 85.446 63.8249 85.6875 64.4082C85.929 64.987 86.0498 65.6227 86.0498 66.3154C86.0498 67.0583 85.9154 67.7282 85.6465 68.3252C85.3822 68.9176 84.9948 69.3734 84.4844 69.6924C83.9785 70.0068 83.4453 70.1641 82.8848 70.1641C82.4746 70.1641 82.1055 70.0775 81.7773 69.9043C81.4538 69.7311 81.1872 69.5124 80.9775 69.248V72.7822H79.7471ZM80.8613 66.4111C80.8613 67.3454 81.0505 68.0358 81.4287 68.4824C81.807 68.929 82.265 69.1523 82.8027 69.1523C83.3496 69.1523 83.8167 68.9222 84.2041 68.4619C84.596 67.9971 84.792 67.2793 84.792 66.3086C84.792 65.3835 84.6006 64.6908 84.2178 64.2305C83.8395 63.7702 83.3861 63.54 82.8574 63.54C82.3333 63.54 81.8685 63.7861 81.4629 64.2783C81.0618 64.766 80.8613 65.4769 80.8613 66.4111ZM87.5264 70V62.7402H88.6338V63.8408C88.9163 63.3258 89.1761 62.9863 89.4131 62.8223C89.6546 62.6582 89.9189 62.5762 90.2061 62.5762C90.6208 62.5762 91.0423 62.7083 91.4707 62.9727L91.0469 64.1143C90.7461 63.9365 90.4453 63.8477 90.1445 63.8477C89.8757 63.8477 89.6341 63.9297 89.4199 64.0938C89.2057 64.2533 89.0531 64.4766 88.9619 64.7637C88.8252 65.2012 88.7568 65.6797 88.7568 66.1992V70H87.5264ZM91.7441 66.3701C91.7441 65.0257 92.1178 64.0299 92.8652 63.3828C93.4896 62.8451 94.2507 62.5762 95.1484 62.5762C96.1465 62.5762 96.9622 62.9043 97.5957 63.5605C98.2292 64.2122 98.5459 65.1146 98.5459 66.2676C98.5459 67.2018 98.4046 67.9378 98.1221 68.4756C97.8441 69.0088 97.4362 69.4235 96.8984 69.7197C96.3652 70.016 95.7819 70.1641 95.1484 70.1641C94.1322 70.1641 93.3096 69.8382 92.6807 69.1865C92.0563 68.5348 91.7441 67.596 91.7441 66.3701ZM93.0088 66.3701C93.0088 67.2998 93.2116 67.9971 93.6172 68.4619C94.0228 68.9222 94.5332 69.1523 95.1484 69.1523C95.7591 69.1523 96.2673 68.9199 96.6729 68.4551C97.0785 67.9902 97.2812 67.2816 97.2812 66.3291C97.2812 65.4313 97.0762 64.7523 96.666 64.292C96.2604 63.8271 95.7546 63.5947 95.1484 63.5947C94.5332 63.5947 94.0228 63.8249 93.6172 64.2852C93.2116 64.7454 93.0088 65.4404 93.0088 66.3701ZM102.012 70L99.25 62.7402H100.549L102.107 67.0879C102.276 67.5573 102.431 68.0449 102.572 68.5508C102.682 68.168 102.834 67.7077 103.03 67.1699L104.644 62.7402H105.908L103.16 70H102.012ZM107.002 61.3936V59.9785H108.232V61.3936H107.002ZM107.002 70V62.7402H108.232V70H107.002ZM114.822 70V69.084C114.362 69.804 113.685 70.1641 112.792 70.1641C112.213 70.1641 111.68 70.0046 111.192 69.6855C110.709 69.3665 110.333 68.9222 110.064 68.3525C109.8 67.7783 109.668 67.1198 109.668 66.377C109.668 65.6523 109.789 64.9961 110.03 64.4082C110.272 63.8158 110.634 63.3623 111.117 63.0479C111.6 62.7334 112.14 62.5762 112.737 62.5762C113.175 62.5762 113.564 62.6696 113.906 62.8564C114.248 63.0387 114.526 63.278 114.74 63.5742V59.9785H115.964V70H114.822ZM110.933 66.377C110.933 67.3066 111.129 68.0016 111.521 68.4619C111.912 68.9222 112.375 69.1523 112.908 69.1523C113.446 69.1523 113.902 68.9336 114.275 68.4961C114.654 68.054 114.843 67.3818 114.843 66.4795C114.843 65.486 114.651 64.7568 114.269 64.292C113.886 63.8271 113.414 63.5947 112.854 63.5947C112.307 63.5947 111.849 63.818 111.479 64.2646C111.115 64.7113 110.933 65.4154 110.933 66.377ZM122.875 67.6621L124.146 67.8193C123.946 68.5622 123.575 69.1387 123.032 69.5488C122.49 69.959 121.797 70.1641 120.954 70.1641C119.892 70.1641 119.049 69.8382 118.425 69.1865C117.805 68.5303 117.495 67.612 117.495 66.4316C117.495 65.2103 117.81 64.2624 118.438 63.5879C119.067 62.9134 119.883 62.5762 120.886 62.5762C121.856 62.5762 122.649 62.9066 123.265 63.5674C123.88 64.2282 124.188 65.1579 124.188 66.3564C124.188 66.4294 124.185 66.5387 124.181 66.6846H118.767C118.812 67.4821 119.038 68.0928 119.443 68.5166C119.849 68.9404 120.355 69.1523 120.961 69.1523C121.412 69.1523 121.797 69.0339 122.116 68.7969C122.435 68.5599 122.688 68.1816 122.875 67.6621ZM118.835 65.6729H122.889C122.834 65.0622 122.679 64.6042 122.424 64.2988C122.032 63.8249 121.524 63.5879 120.899 63.5879C120.334 63.5879 119.858 63.777 119.471 64.1553C119.088 64.5335 118.876 65.0394 118.835 65.6729ZM125.685 70V62.7402H126.792V63.8408C127.075 63.3258 127.334 62.9863 127.571 62.8223C127.813 62.6582 128.077 62.5762 128.364 62.5762C128.779 62.5762 129.201 62.7083 129.629 62.9727L129.205 64.1143C128.904 63.9365 128.604 63.8477 128.303 63.8477C128.034 63.8477 127.792 63.9297 127.578 64.0938C127.364 64.2533 127.211 64.4766 127.12 64.7637C126.983 65.2012 126.915 65.6797 126.915 66.1992V70H125.685ZM131.167 72.9463H130.285C131.648 70.7588 132.329 68.569 132.329 66.377C132.329 65.5202 132.231 64.6702 132.035 63.8271C131.88 63.1436 131.664 62.4873 131.386 61.8584C131.208 61.4482 130.841 60.7646 130.285 59.8076H131.167C132.024 60.9515 132.657 62.0999 133.067 63.2529C133.418 64.2464 133.594 65.2855 133.594 66.3701C133.594 67.6006 133.357 68.79 132.883 69.9385C132.413 71.0869 131.841 72.0895 131.167 72.9463Z" fill="black"/>
<rect x="14" y="141" width="132" height="86" rx="7" stroke="#5AC09E" stroke-width="2"/>
<path d="M57.2773 185.78L58.5283 185.671C58.5876 186.172 58.7243 186.585 58.9385 186.908C59.1572 187.227 59.4945 187.487 59.9502 187.688C60.4059 187.883 60.9186 187.981 61.4883 187.981C61.9941 187.981 62.4408 187.906 62.8281 187.756C63.2155 187.605 63.5026 187.4 63.6895 187.141C63.8809 186.876 63.9766 186.589 63.9766 186.279C63.9766 185.965 63.8854 185.691 63.7031 185.459C63.5208 185.222 63.2201 185.024 62.8008 184.864C62.5319 184.759 61.9372 184.598 61.0166 184.379C60.096 184.156 59.4512 183.946 59.082 183.75C58.6035 183.499 58.2458 183.189 58.0088 182.82C57.7764 182.447 57.6602 182.03 57.6602 181.569C57.6602 181.063 57.8037 180.592 58.0908 180.154C58.3779 179.712 58.7972 179.377 59.3486 179.149C59.9001 178.922 60.513 178.808 61.1875 178.808C61.9303 178.808 62.5843 178.928 63.1494 179.17C63.7191 179.407 64.1566 179.758 64.4619 180.223C64.7673 180.688 64.9313 181.214 64.9541 181.802L63.6826 181.897C63.6143 181.264 63.3818 180.785 62.9854 180.462C62.5934 180.138 62.0124 179.977 61.2422 179.977C60.4401 179.977 59.8545 180.125 59.4854 180.421C59.1208 180.713 58.9385 181.066 58.9385 181.48C58.9385 181.84 59.0684 182.137 59.3281 182.369C59.5833 182.602 60.2487 182.841 61.3242 183.087C62.4043 183.328 63.1449 183.54 63.5459 183.723C64.1292 183.992 64.5599 184.333 64.8379 184.748C65.1159 185.158 65.2549 185.632 65.2549 186.17C65.2549 186.703 65.1022 187.207 64.7969 187.681C64.4915 188.15 64.0518 188.517 63.4775 188.781C62.9079 189.041 62.2653 189.171 61.5498 189.171C60.6429 189.171 59.8818 189.039 59.2666 188.774C58.6559 188.51 58.1751 188.114 57.8242 187.585C57.4779 187.052 57.2956 186.45 57.2773 185.78ZM71.8789 186.662L73.1504 186.819C72.9499 187.562 72.5785 188.139 72.0361 188.549C71.4938 188.959 70.8011 189.164 69.958 189.164C68.8962 189.164 68.0531 188.838 67.4287 188.187C66.8089 187.53 66.499 186.612 66.499 185.432C66.499 184.21 66.8135 183.262 67.4424 182.588C68.0713 181.913 68.887 181.576 69.8896 181.576C70.8604 181.576 71.6533 181.907 72.2686 182.567C72.8838 183.228 73.1914 184.158 73.1914 185.356C73.1914 185.429 73.1891 185.539 73.1846 185.685H67.7705C67.8161 186.482 68.0417 187.093 68.4473 187.517C68.8529 187.94 69.3587 188.152 69.9648 188.152C70.416 188.152 70.8011 188.034 71.1201 187.797C71.4391 187.56 71.6921 187.182 71.8789 186.662ZM67.8389 184.673H71.8926C71.8379 184.062 71.6829 183.604 71.4277 183.299C71.0358 182.825 70.5277 182.588 69.9033 182.588C69.3382 182.588 68.862 182.777 68.4746 183.155C68.0918 183.534 67.8799 184.039 67.8389 184.673ZM74.6885 189V181.74H75.7959V182.841C76.0785 182.326 76.3382 181.986 76.5752 181.822C76.8167 181.658 77.0811 181.576 77.3682 181.576C77.7829 181.576 78.2044 181.708 78.6328 181.973L78.209 183.114C77.9082 182.937 77.6074 182.848 77.3066 182.848C77.0378 182.848 76.7962 182.93 76.582 183.094C76.3678 183.253 76.2152 183.477 76.124 183.764C75.9873 184.201 75.9189 184.68 75.9189 185.199V189H74.6885ZM81.3809 189L78.6191 181.74H79.918L81.4766 186.088C81.6452 186.557 81.8001 187.045 81.9414 187.551C82.0508 187.168 82.2035 186.708 82.3994 186.17L84.0127 181.74H85.2773L82.5293 189H81.3809ZM86.3711 180.394V178.979H87.6016V180.394H86.3711ZM86.3711 189V181.74H87.6016V189H86.3711ZM94.2188 186.341L95.4287 186.498C95.2965 187.332 94.957 187.986 94.4102 188.46C93.8678 188.929 93.2002 189.164 92.4072 189.164C91.4137 189.164 90.6139 188.84 90.0078 188.193C89.4062 187.542 89.1055 186.61 89.1055 185.397C89.1055 184.614 89.2354 183.928 89.4951 183.34C89.7549 182.752 90.1491 182.312 90.6777 182.021C91.2109 181.724 91.7897 181.576 92.4141 181.576C93.2025 181.576 93.8473 181.777 94.3486 182.178C94.8499 182.574 95.1712 183.139 95.3125 183.873L94.1162 184.058C94.0023 183.57 93.7995 183.203 93.5078 182.957C93.2207 182.711 92.8721 182.588 92.4619 182.588C91.8421 182.588 91.3385 182.811 90.9512 183.258C90.5638 183.7 90.3701 184.402 90.3701 185.363C90.3701 186.339 90.557 187.047 90.9307 187.489C91.3044 187.931 91.792 188.152 92.3936 188.152C92.8766 188.152 93.2799 188.004 93.6035 187.708C93.9271 187.412 94.1322 186.956 94.2188 186.341ZM101.451 186.662L102.723 186.819C102.522 187.562 102.151 188.139 101.608 188.549C101.066 188.959 100.373 189.164 99.5303 189.164C98.4684 189.164 97.6253 188.838 97.001 188.187C96.3812 187.53 96.0713 186.612 96.0713 185.432C96.0713 184.21 96.3857 183.262 97.0146 182.588C97.6436 181.913 98.4593 181.576 99.4619 181.576C100.433 181.576 101.226 181.907 101.841 182.567C102.456 183.228 102.764 184.158 102.764 185.356C102.764 185.429 102.761 185.539 102.757 185.685H97.3428C97.3883 186.482 97.6139 187.093 98.0195 187.517C98.4251 187.94 98.931 188.152 99.5371 188.152C99.9883 188.152 100.373 188.034 100.692 187.797C101.011 187.56 101.264 187.182 101.451 186.662ZM97.4111 184.673H101.465C101.41 184.062 101.255 183.604 101 183.299C100.608 182.825 100.1 182.588 99.4756 182.588C98.9105 182.588 98.4342 182.777 98.0469 183.155C97.6641 183.534 97.4521 184.039 97.4111 184.673Z" fill="black"/>
<rect x="221" y="141" width="132" height="86" rx="7" stroke="#5AC09E" stroke-width="2"/>
<path d="M242.758 189V180.161H239.456V178.979H247.399V180.161H244.084V189H242.758ZM251.788 188.104C251.332 188.492 250.893 188.765 250.469 188.925C250.049 189.084 249.598 189.164 249.115 189.164C248.318 189.164 247.705 188.97 247.276 188.583C246.848 188.191 246.634 187.692 246.634 187.086C246.634 186.73 246.714 186.407 246.873 186.115C247.037 185.819 247.249 185.582 247.509 185.404C247.773 185.227 248.069 185.092 248.397 185.001C248.639 184.937 249.004 184.876 249.491 184.816C250.485 184.698 251.216 184.557 251.686 184.393C251.69 184.224 251.692 184.117 251.692 184.071C251.692 183.57 251.576 183.217 251.344 183.012C251.029 182.734 250.562 182.595 249.942 182.595C249.364 182.595 248.935 182.697 248.657 182.902C248.384 183.103 248.181 183.461 248.049 183.976L246.846 183.812C246.955 183.297 247.135 182.882 247.386 182.567C247.636 182.248 247.999 182.005 248.473 181.836C248.947 181.663 249.496 181.576 250.12 181.576C250.74 181.576 251.243 181.649 251.631 181.795C252.018 181.941 252.303 182.125 252.485 182.349C252.668 182.567 252.795 182.845 252.868 183.183C252.909 183.392 252.93 183.771 252.93 184.317V185.958C252.93 187.102 252.955 187.826 253.005 188.132C253.06 188.433 253.164 188.722 253.319 189H252.034C251.907 188.745 251.825 188.446 251.788 188.104ZM251.686 185.356C251.239 185.539 250.569 185.694 249.676 185.821C249.17 185.894 248.812 185.976 248.603 186.067C248.393 186.159 248.231 186.293 248.117 186.471C248.003 186.644 247.946 186.838 247.946 187.052C247.946 187.38 248.069 187.653 248.315 187.872C248.566 188.091 248.931 188.2 249.409 188.2C249.883 188.2 250.305 188.098 250.674 187.893C251.043 187.683 251.314 187.398 251.487 187.038C251.619 186.76 251.686 186.35 251.686 185.808V185.356ZM254.023 189L256.676 185.227L254.222 181.74H255.76L256.874 183.442C257.084 183.766 257.252 184.037 257.38 184.256C257.58 183.955 257.765 183.688 257.934 183.456L259.157 181.74H260.627L258.118 185.158L260.818 189H259.308L257.817 186.744L257.421 186.136L255.514 189H254.023ZM261.386 185.37C261.386 184.026 261.759 183.03 262.507 182.383C263.131 181.845 263.892 181.576 264.79 181.576C265.788 181.576 266.604 181.904 267.237 182.561C267.871 183.212 268.188 184.115 268.188 185.268C268.188 186.202 268.046 186.938 267.764 187.476C267.486 188.009 267.078 188.424 266.54 188.72C266.007 189.016 265.424 189.164 264.79 189.164C263.774 189.164 262.951 188.838 262.322 188.187C261.698 187.535 261.386 186.596 261.386 185.37ZM262.65 185.37C262.65 186.3 262.853 186.997 263.259 187.462C263.664 187.922 264.175 188.152 264.79 188.152C265.401 188.152 265.909 187.92 266.314 187.455C266.72 186.99 266.923 186.282 266.923 185.329C266.923 184.431 266.718 183.752 266.308 183.292C265.902 182.827 265.396 182.595 264.79 182.595C264.175 182.595 263.664 182.825 263.259 183.285C262.853 183.745 262.65 184.44 262.65 185.37ZM269.637 189V181.74H270.744V182.772C271.277 181.975 272.048 181.576 273.055 181.576C273.492 181.576 273.893 181.656 274.258 181.815C274.627 181.97 274.903 182.175 275.085 182.431C275.267 182.686 275.395 182.989 275.468 183.34C275.513 183.568 275.536 183.966 275.536 184.536V189H274.306V184.584C274.306 184.083 274.258 183.709 274.162 183.463C274.066 183.212 273.896 183.014 273.649 182.868C273.408 182.718 273.123 182.643 272.795 182.643C272.271 182.643 271.817 182.809 271.435 183.142C271.056 183.474 270.867 184.105 270.867 185.035V189H269.637ZM276.972 185.37C276.972 184.026 277.345 183.03 278.093 182.383C278.717 181.845 279.478 181.576 280.376 181.576C281.374 181.576 282.19 181.904 282.823 182.561C283.457 183.212 283.773 184.115 283.773 185.268C283.773 186.202 283.632 186.938 283.35 187.476C283.072 188.009 282.664 188.424 282.126 188.72C281.593 189.016 281.009 189.164 280.376 189.164C279.36 189.164 278.537 188.838 277.908 188.187C277.284 187.535 276.972 186.596 276.972 185.37ZM278.236 185.37C278.236 186.3 278.439 186.997 278.845 187.462C279.25 187.922 279.761 188.152 280.376 188.152C280.987 188.152 281.495 187.92 281.9 187.455C282.306 186.99 282.509 186.282 282.509 185.329C282.509 184.431 282.304 183.752 281.894 183.292C281.488 182.827 280.982 182.595 280.376 182.595C279.761 182.595 279.25 182.825 278.845 183.285C278.439 183.745 278.236 184.44 278.236 185.37ZM285.223 189V181.74H286.323V182.759C286.551 182.403 286.854 182.118 287.232 181.904C287.611 181.686 288.041 181.576 288.524 181.576C289.062 181.576 289.502 181.688 289.844 181.911C290.19 182.134 290.434 182.447 290.575 182.848C291.149 182 291.897 181.576 292.817 181.576C293.537 181.576 294.091 181.777 294.479 182.178C294.866 182.574 295.06 183.187 295.06 184.017V189H293.836V184.427C293.836 183.935 293.795 183.581 293.713 183.367C293.635 183.148 293.492 182.973 293.282 182.841C293.073 182.709 292.826 182.643 292.544 182.643C292.034 182.643 291.61 182.813 291.272 183.155C290.935 183.493 290.767 184.035 290.767 184.782V189H289.536V184.283C289.536 183.736 289.436 183.326 289.235 183.053C289.035 182.779 288.707 182.643 288.251 182.643C287.905 182.643 287.583 182.734 287.287 182.916C286.995 183.098 286.784 183.365 286.651 183.716C286.519 184.067 286.453 184.573 286.453 185.233V189H285.223ZM296.83 191.796L296.693 190.641C296.962 190.714 297.197 190.75 297.397 190.75C297.671 190.75 297.89 190.704 298.054 190.613C298.218 190.522 298.352 190.395 298.457 190.23C298.535 190.107 298.66 189.802 298.833 189.314C298.856 189.246 298.892 189.146 298.942 189.014L296.188 181.74H297.514L299.024 185.944C299.22 186.478 299.396 187.038 299.551 187.626C299.692 187.061 299.861 186.509 300.057 185.972L301.608 181.74H302.839L300.077 189.123C299.781 189.921 299.551 190.47 299.387 190.771C299.168 191.176 298.917 191.472 298.635 191.659C298.352 191.851 298.015 191.946 297.623 191.946C297.386 191.946 297.122 191.896 296.83 191.796ZM310.468 187.899L310.646 188.986C310.299 189.059 309.989 189.096 309.716 189.096C309.269 189.096 308.923 189.025 308.677 188.884C308.431 188.743 308.257 188.558 308.157 188.33C308.057 188.098 308.007 187.612 308.007 186.874V182.697H307.104V181.74H308.007V179.942L309.23 179.204V181.74H310.468V182.697H309.23V186.942C309.23 187.293 309.251 187.519 309.292 187.619C309.338 187.719 309.408 187.799 309.504 187.858C309.604 187.918 309.745 187.947 309.928 187.947C310.064 187.947 310.244 187.931 310.468 187.899ZM316.647 186.662L317.919 186.819C317.718 187.562 317.347 188.139 316.805 188.549C316.262 188.959 315.57 189.164 314.727 189.164C313.665 189.164 312.822 188.838 312.197 188.187C311.577 187.53 311.268 186.612 311.268 185.432C311.268 184.21 311.582 183.262 312.211 182.588C312.84 181.913 313.656 181.576 314.658 181.576C315.629 181.576 316.422 181.907 317.037 182.567C317.652 183.228 317.96 184.158 317.96 185.356C317.96 185.429 317.958 185.539 317.953 185.685H312.539C312.585 186.482 312.81 187.093 313.216 187.517C313.621 187.94 314.127 188.152 314.733 188.152C315.185 188.152 315.57 188.034 315.889 187.797C316.208 187.56 316.461 187.182 316.647 186.662ZM312.607 184.673H316.661C316.606 184.062 316.451 183.604 316.196 183.299C315.804 182.825 315.296 182.588 314.672 182.588C314.107 182.588 313.631 182.777 313.243 183.155C312.86 183.534 312.648 184.039 312.607 184.673ZM319.457 189V181.74H320.564V182.841C320.847 182.326 321.107 181.986 321.344 181.822C321.585 181.658 321.85 181.576 322.137 181.576C322.551 181.576 322.973 181.708 323.401 181.973L322.978 183.114C322.677 182.937 322.376 182.848 322.075 182.848C321.806 182.848 321.565 182.93 321.351 183.094C321.136 183.253 320.984 183.477 320.893 183.764C320.756 184.201 320.688 184.68 320.688 185.199V189H319.457ZM324.133 189V181.74H325.233V182.759C325.461 182.403 325.764 182.118 326.143 181.904C326.521 181.686 326.951 181.576 327.435 181.576C327.972 181.576 328.412 181.688 328.754 181.911C329.1 182.134 329.344 182.447 329.485 182.848C330.06 182 330.807 181.576 331.728 181.576C332.448 181.576 333.001 181.777 333.389 182.178C333.776 182.574 333.97 183.187 333.97 184.017V189H332.746V184.427C332.746 183.935 332.705 183.581 332.623 183.367C332.546 183.148 332.402 182.973 332.192 182.841C331.983 182.709 331.737 182.643 331.454 182.643C330.944 182.643 330.52 182.813 330.183 183.155C329.845 183.493 329.677 184.035 329.677 184.782V189H328.446V184.283C328.446 183.736 328.346 183.326 328.146 183.053C327.945 182.779 327.617 182.643 327.161 182.643C326.815 182.643 326.493 182.734 326.197 182.916C325.906 183.098 325.694 183.365 325.562 183.716C325.429 184.067 325.363 184.573 325.363 185.233V189H324.133Z" fill="black"/>
<rect x="221" y="268" width="132" height="86" rx="7" stroke="#5AC09E" stroke-width="2"/>
<path d="M261.536 316V305.979H262.862V314.817H267.798V316H261.536ZM268.769 312.37C268.769 311.026 269.142 310.03 269.89 309.383C270.514 308.845 271.275 308.576 272.173 308.576C273.171 308.576 273.987 308.904 274.62 309.561C275.254 310.212 275.57 311.115 275.57 312.268C275.57 313.202 275.429 313.938 275.146 314.476C274.868 315.009 274.461 315.424 273.923 315.72C273.39 316.016 272.806 316.164 272.173 316.164C271.157 316.164 270.334 315.838 269.705 315.187C269.081 314.535 268.769 313.596 268.769 312.37ZM270.033 312.37C270.033 313.3 270.236 313.997 270.642 314.462C271.047 314.922 271.558 315.152 272.173 315.152C272.784 315.152 273.292 314.92 273.697 314.455C274.103 313.99 274.306 313.282 274.306 312.329C274.306 311.431 274.101 310.752 273.69 310.292C273.285 309.827 272.779 309.595 272.173 309.595C271.558 309.595 271.047 309.825 270.642 310.285C270.236 310.745 270.033 311.44 270.033 312.37ZM281.757 313.341L282.967 313.498C282.835 314.332 282.495 314.986 281.948 315.46C281.406 315.929 280.738 316.164 279.945 316.164C278.952 316.164 278.152 315.84 277.546 315.193C276.944 314.542 276.644 313.61 276.644 312.397C276.644 311.614 276.773 310.928 277.033 310.34C277.293 309.752 277.687 309.312 278.216 309.021C278.749 308.724 279.328 308.576 279.952 308.576C280.741 308.576 281.385 308.777 281.887 309.178C282.388 309.574 282.709 310.139 282.851 310.873L281.654 311.058C281.54 310.57 281.338 310.203 281.046 309.957C280.759 309.711 280.41 309.588 280 309.588C279.38 309.588 278.877 309.811 278.489 310.258C278.102 310.7 277.908 311.402 277.908 312.363C277.908 313.339 278.095 314.047 278.469 314.489C278.842 314.931 279.33 315.152 279.932 315.152C280.415 315.152 280.818 315.004 281.142 314.708C281.465 314.412 281.67 313.956 281.757 313.341ZM288.757 315.104C288.301 315.492 287.861 315.765 287.438 315.925C287.018 316.084 286.567 316.164 286.084 316.164C285.286 316.164 284.674 315.97 284.245 315.583C283.817 315.191 283.603 314.692 283.603 314.086C283.603 313.73 283.682 313.407 283.842 313.115C284.006 312.819 284.218 312.582 284.478 312.404C284.742 312.227 285.038 312.092 285.366 312.001C285.608 311.937 285.972 311.876 286.46 311.816C287.453 311.698 288.185 311.557 288.654 311.393C288.659 311.224 288.661 311.117 288.661 311.071C288.661 310.57 288.545 310.217 288.312 310.012C287.998 309.734 287.531 309.595 286.911 309.595C286.332 309.595 285.904 309.697 285.626 309.902C285.353 310.103 285.15 310.461 285.018 310.976L283.814 310.812C283.924 310.297 284.104 309.882 284.354 309.567C284.605 309.248 284.967 309.005 285.441 308.836C285.915 308.663 286.465 308.576 287.089 308.576C287.709 308.576 288.212 308.649 288.6 308.795C288.987 308.941 289.272 309.125 289.454 309.349C289.636 309.567 289.764 309.845 289.837 310.183C289.878 310.392 289.898 310.771 289.898 311.317V312.958C289.898 314.102 289.924 314.826 289.974 315.132C290.028 315.433 290.133 315.722 290.288 316H289.003C288.875 315.745 288.793 315.446 288.757 315.104ZM288.654 312.356C288.208 312.539 287.538 312.694 286.645 312.821C286.139 312.894 285.781 312.976 285.571 313.067C285.362 313.159 285.2 313.293 285.086 313.471C284.972 313.644 284.915 313.838 284.915 314.052C284.915 314.38 285.038 314.653 285.284 314.872C285.535 315.091 285.899 315.2 286.378 315.2C286.852 315.2 287.273 315.098 287.643 314.893C288.012 314.683 288.283 314.398 288.456 314.038C288.588 313.76 288.654 313.35 288.654 312.808V312.356ZM294.499 314.899L294.677 315.986C294.33 316.059 294.021 316.096 293.747 316.096C293.3 316.096 292.954 316.025 292.708 315.884C292.462 315.743 292.289 315.558 292.188 315.33C292.088 315.098 292.038 314.612 292.038 313.874V309.697H291.136V308.74H292.038V306.942L293.262 306.204V308.74H294.499V309.697H293.262V313.942C293.262 314.293 293.282 314.519 293.323 314.619C293.369 314.719 293.439 314.799 293.535 314.858C293.635 314.918 293.777 314.947 293.959 314.947C294.096 314.947 294.276 314.931 294.499 314.899ZM295.716 307.394V305.979H296.946V307.394H295.716ZM295.716 316V308.74H296.946V316H295.716ZM298.368 312.37C298.368 311.026 298.742 310.03 299.489 309.383C300.114 308.845 300.875 308.576 301.772 308.576C302.771 308.576 303.586 308.904 304.22 309.561C304.853 310.212 305.17 311.115 305.17 312.268C305.17 313.202 305.029 313.938 304.746 314.476C304.468 315.009 304.06 315.424 303.522 315.72C302.989 316.016 302.406 316.164 301.772 316.164C300.756 316.164 299.934 315.838 299.305 315.187C298.68 314.535 298.368 313.596 298.368 312.37ZM299.633 312.37C299.633 313.3 299.836 313.997 300.241 314.462C300.647 314.922 301.157 315.152 301.772 315.152C302.383 315.152 302.891 314.92 303.297 314.455C303.702 313.99 303.905 313.282 303.905 312.329C303.905 311.431 303.7 310.752 303.29 310.292C302.884 309.827 302.379 309.595 301.772 309.595C301.157 309.595 300.647 309.825 300.241 310.285C299.836 310.745 299.633 311.44 299.633 312.37ZM306.619 316V308.74H307.727V309.772C308.26 308.975 309.03 308.576 310.037 308.576C310.475 308.576 310.876 308.656 311.24 308.815C311.609 308.97 311.885 309.175 312.067 309.431C312.25 309.686 312.377 309.989 312.45 310.34C312.496 310.568 312.519 310.966 312.519 311.536V316H311.288V311.584C311.288 311.083 311.24 310.709 311.145 310.463C311.049 310.212 310.878 310.014 310.632 309.868C310.39 309.718 310.105 309.643 309.777 309.643C309.253 309.643 308.8 309.809 308.417 310.142C308.039 310.474 307.85 311.105 307.85 312.035V316H306.619Z" fill="black"/>
<rect x="14" y="268" width="132" height="86" rx="7" stroke="#5AC09E" stroke-width="2"/>
<path d="M51.4189 312.78L52.6699 312.671C52.7292 313.172 52.8659 313.585 53.0801 313.908C53.2988 314.227 53.6361 314.487 54.0918 314.688C54.5475 314.883 55.0602 314.981 55.6299 314.981C56.1357 314.981 56.5824 314.906 56.9697 314.756C57.3571 314.605 57.6442 314.4 57.8311 314.141C58.0225 313.876 58.1182 313.589 58.1182 313.279C58.1182 312.965 58.027 312.691 57.8447 312.459C57.6624 312.222 57.3617 312.024 56.9424 311.864C56.6735 311.759 56.0788 311.598 55.1582 311.379C54.2376 311.156 53.5928 310.946 53.2236 310.75C52.7451 310.499 52.3874 310.189 52.1504 309.82C51.918 309.447 51.8018 309.03 51.8018 308.569C51.8018 308.063 51.9453 307.592 52.2324 307.154C52.5195 306.712 52.9388 306.377 53.4902 306.149C54.0417 305.922 54.6546 305.808 55.3291 305.808C56.0719 305.808 56.7259 305.928 57.291 306.17C57.8607 306.407 58.2982 306.758 58.6035 307.223C58.9089 307.688 59.0729 308.214 59.0957 308.802L57.8242 308.897C57.7559 308.264 57.5234 307.785 57.127 307.462C56.735 307.138 56.154 306.977 55.3838 306.977C54.5817 306.977 53.9961 307.125 53.627 307.421C53.2624 307.713 53.0801 308.066 53.0801 308.48C53.0801 308.84 53.21 309.137 53.4697 309.369C53.7249 309.602 54.3903 309.841 55.4658 310.087C56.5459 310.328 57.2865 310.54 57.6875 310.723C58.2708 310.992 58.7015 311.333 58.9795 311.748C59.2575 312.158 59.3965 312.632 59.3965 313.17C59.3965 313.703 59.2438 314.207 58.9385 314.681C58.6331 315.15 58.1934 315.517 57.6191 315.781C57.0495 316.041 56.4069 316.171 55.6914 316.171C54.7845 316.171 54.0234 316.039 53.4082 315.774C52.7975 315.51 52.3167 315.114 51.9658 314.585C51.6195 314.052 51.4372 313.45 51.4189 312.78ZM65.7881 313.341L66.998 313.498C66.8659 314.332 66.5264 314.986 65.9795 315.46C65.4372 315.929 64.7695 316.164 63.9766 316.164C62.9831 316.164 62.1833 315.84 61.5771 315.193C60.9756 314.542 60.6748 313.61 60.6748 312.397C60.6748 311.614 60.8047 310.928 61.0645 310.34C61.3242 309.752 61.7184 309.312 62.2471 309.021C62.7803 308.724 63.359 308.576 63.9834 308.576C64.7718 308.576 65.4167 308.777 65.918 309.178C66.4193 309.574 66.7406 310.139 66.8818 310.873L65.6855 311.058C65.5716 310.57 65.3688 310.203 65.0771 309.957C64.79 309.711 64.4414 309.588 64.0312 309.588C63.4115 309.588 62.9079 309.811 62.5205 310.258C62.1331 310.7 61.9395 311.402 61.9395 312.363C61.9395 313.339 62.1263 314.047 62.5 314.489C62.8737 314.931 63.3613 315.152 63.9629 315.152C64.446 315.152 64.8493 315.004 65.1729 314.708C65.4964 314.412 65.7015 313.956 65.7881 313.341ZM68.0508 316V305.979H69.2812V309.574C69.8555 308.909 70.5801 308.576 71.4551 308.576C71.9928 308.576 72.46 308.683 72.8564 308.897C73.2529 309.107 73.5355 309.399 73.7041 309.772C73.8773 310.146 73.9639 310.688 73.9639 311.399V316H72.7334V311.399C72.7334 310.784 72.599 310.338 72.3301 310.06C72.0658 309.777 71.6898 309.636 71.2021 309.636C70.8376 309.636 70.4935 309.731 70.1699 309.923C69.8509 310.11 69.623 310.365 69.4863 310.688C69.3496 311.012 69.2812 311.459 69.2812 312.028V316H68.0508ZM80.8135 313.662L82.085 313.819C81.8844 314.562 81.513 315.139 80.9707 315.549C80.4284 315.959 79.7357 316.164 78.8926 316.164C77.8307 316.164 76.9876 315.838 76.3633 315.187C75.7435 314.53 75.4336 313.612 75.4336 312.432C75.4336 311.21 75.748 310.262 76.377 309.588C77.0059 308.913 77.8216 308.576 78.8242 308.576C79.7949 308.576 80.5879 308.907 81.2031 309.567C81.8184 310.228 82.126 311.158 82.126 312.356C82.126 312.429 82.1237 312.539 82.1191 312.685H76.7051C76.7507 313.482 76.9762 314.093 77.3818 314.517C77.7874 314.94 78.2933 315.152 78.8994 315.152C79.3506 315.152 79.7357 315.034 80.0547 314.797C80.3737 314.56 80.6266 314.182 80.8135 313.662ZM76.7734 311.673H80.8271C80.7725 311.062 80.6175 310.604 80.3623 310.299C79.9704 309.825 79.4622 309.588 78.8379 309.588C78.2728 309.588 77.7965 309.777 77.4092 310.155C77.0264 310.534 76.8145 311.039 76.7734 311.673ZM88.3467 316V315.084C87.8864 315.804 87.2096 316.164 86.3164 316.164C85.7376 316.164 85.2044 316.005 84.7168 315.686C84.2337 315.367 83.8577 314.922 83.5889 314.353C83.3245 313.778 83.1924 313.12 83.1924 312.377C83.1924 311.652 83.3132 310.996 83.5547 310.408C83.7962 309.816 84.1585 309.362 84.6416 309.048C85.1247 308.733 85.6647 308.576 86.2617 308.576C86.6992 308.576 87.0889 308.67 87.4307 308.856C87.7725 309.039 88.0505 309.278 88.2646 309.574V305.979H89.4883V316H88.3467ZM84.457 312.377C84.457 313.307 84.653 314.002 85.0449 314.462C85.4368 314.922 85.8994 315.152 86.4326 315.152C86.9704 315.152 87.4261 314.934 87.7998 314.496C88.1781 314.054 88.3672 313.382 88.3672 312.479C88.3672 311.486 88.1758 310.757 87.793 310.292C87.4102 309.827 86.9385 309.595 86.3779 309.595C85.8311 309.595 85.373 309.818 85.0039 310.265C84.6393 310.711 84.457 311.415 84.457 312.377ZM96.1875 316V314.934C95.6224 315.754 94.8545 316.164 93.8838 316.164C93.4554 316.164 93.0544 316.082 92.6807 315.918C92.3115 315.754 92.0358 315.549 91.8535 315.303C91.6758 315.052 91.5505 314.747 91.4775 314.387C91.4274 314.145 91.4023 313.762 91.4023 313.238V308.74H92.6328V312.767C92.6328 313.409 92.6579 313.842 92.708 314.065C92.7855 314.389 92.9495 314.644 93.2002 314.831C93.4508 315.013 93.7607 315.104 94.1299 315.104C94.499 315.104 94.8454 315.011 95.1689 314.824C95.4925 314.633 95.7204 314.375 95.8525 314.052C95.9893 313.724 96.0576 313.25 96.0576 312.63V308.74H97.2881V316H96.1875ZM99.1953 316V305.979H100.426V316H99.1953ZM107.31 313.662L108.581 313.819C108.381 314.562 108.009 315.139 107.467 315.549C106.924 315.959 106.232 316.164 105.389 316.164C104.327 316.164 103.484 315.838 102.859 315.187C102.24 314.53 101.93 313.612 101.93 312.432C101.93 311.21 102.244 310.262 102.873 309.588C103.502 308.913 104.318 308.576 105.32 308.576C106.291 308.576 107.084 308.907 107.699 309.567C108.314 310.228 108.622 311.158 108.622 312.356C108.622 312.429 108.62 312.539 108.615 312.685H103.201C103.247 313.482 103.472 314.093 103.878 314.517C104.284 314.94 104.789 315.152 105.396 315.152C105.847 315.152 106.232 315.034 106.551 314.797C106.87 314.56 107.123 314.182 107.31 313.662ZM103.27 311.673H107.323C107.269 311.062 107.114 310.604 106.858 310.299C106.466 309.825 105.958 309.588 105.334 309.588C104.769 309.588 104.293 309.777 103.905 310.155C103.522 310.534 103.311 311.039 103.27 311.673Z" fill="black"/>
<path d="M164.602 303V294.41H165.656V297.492C166.148 296.922 166.77 296.637 167.52 296.637C167.98 296.637 168.381 296.729 168.721 296.912C169.061 297.092 169.303 297.342 169.447 297.662C169.596 297.982 169.67 298.447 169.67 299.057V303H168.615V299.057C168.615 298.529 168.5 298.146 168.27 297.908C168.043 297.666 167.721 297.545 167.303 297.545C166.99 297.545 166.695 297.627 166.418 297.791C166.145 297.951 165.949 298.17 165.832 298.447C165.715 298.725 165.656 299.107 165.656 299.596V303H164.602ZM175.342 302.232C174.951 302.564 174.574 302.799 174.211 302.936C173.852 303.072 173.465 303.141 173.051 303.141C172.367 303.141 171.842 302.975 171.475 302.643C171.107 302.307 170.924 301.879 170.924 301.359C170.924 301.055 170.992 300.777 171.129 300.527C171.27 300.273 171.451 300.07 171.674 299.918C171.9 299.766 172.154 299.65 172.436 299.572C172.643 299.518 172.955 299.465 173.373 299.414C174.225 299.312 174.852 299.191 175.254 299.051C175.258 298.906 175.26 298.814 175.26 298.775C175.26 298.346 175.16 298.043 174.961 297.867C174.691 297.629 174.291 297.51 173.76 297.51C173.264 297.51 172.896 297.598 172.658 297.773C172.424 297.945 172.25 298.252 172.137 298.693L171.105 298.553C171.199 298.111 171.354 297.756 171.568 297.486C171.783 297.213 172.094 297.004 172.5 296.859C172.906 296.711 173.377 296.637 173.912 296.637C174.443 296.637 174.875 296.699 175.207 296.824C175.539 296.949 175.783 297.107 175.939 297.299C176.096 297.486 176.205 297.725 176.268 298.014C176.303 298.193 176.32 298.518 176.32 298.986V300.393C176.32 301.373 176.342 301.994 176.385 302.256C176.432 302.514 176.521 302.762 176.654 303H175.553C175.443 302.781 175.373 302.525 175.342 302.232ZM175.254 299.877C174.871 300.033 174.297 300.166 173.531 300.275C173.098 300.338 172.791 300.408 172.611 300.486C172.432 300.564 172.293 300.68 172.195 300.832C172.098 300.98 172.049 301.146 172.049 301.33C172.049 301.611 172.154 301.846 172.365 302.033C172.58 302.221 172.893 302.314 173.303 302.314C173.709 302.314 174.07 302.227 174.387 302.051C174.703 301.871 174.936 301.627 175.084 301.318C175.197 301.08 175.254 300.729 175.254 300.264V299.877ZM177.539 301.143L178.582 300.979C178.641 301.396 178.803 301.717 179.068 301.939C179.338 302.162 179.713 302.273 180.193 302.273C180.678 302.273 181.037 302.176 181.271 301.98C181.506 301.781 181.623 301.549 181.623 301.283C181.623 301.045 181.52 300.857 181.312 300.721C181.168 300.627 180.809 300.508 180.234 300.363C179.461 300.168 178.924 300 178.623 299.859C178.326 299.715 178.1 299.518 177.943 299.268C177.791 299.014 177.715 298.734 177.715 298.43C177.715 298.152 177.777 297.896 177.902 297.662C178.031 297.424 178.205 297.227 178.424 297.07C178.588 296.949 178.811 296.848 179.092 296.766C179.377 296.68 179.682 296.637 180.006 296.637C180.494 296.637 180.922 296.707 181.289 296.848C181.66 296.988 181.934 297.18 182.109 297.422C182.285 297.66 182.406 297.98 182.473 298.383L181.441 298.523C181.395 298.203 181.258 297.953 181.031 297.773C180.809 297.594 180.492 297.504 180.082 297.504C179.598 297.504 179.252 297.584 179.045 297.744C178.838 297.904 178.734 298.092 178.734 298.307C178.734 298.443 178.777 298.566 178.863 298.676C178.949 298.789 179.084 298.883 179.268 298.957C179.373 298.996 179.684 299.086 180.199 299.227C180.945 299.426 181.465 299.59 181.758 299.719C182.055 299.844 182.287 300.027 182.455 300.27C182.623 300.512 182.707 300.812 182.707 301.172C182.707 301.523 182.604 301.855 182.396 302.168C182.193 302.477 181.898 302.717 181.512 302.889C181.125 303.057 180.688 303.141 180.199 303.141C179.391 303.141 178.773 302.973 178.348 302.637C177.926 302.301 177.656 301.803 177.539 301.143ZM191.361 302.232C190.971 302.564 190.594 302.799 190.23 302.936C189.871 303.072 189.484 303.141 189.07 303.141C188.387 303.141 187.861 302.975 187.494 302.643C187.127 302.307 186.943 301.879 186.943 301.359C186.943 301.055 187.012 300.777 187.148 300.527C187.289 300.273 187.471 300.07 187.693 299.918C187.92 299.766 188.174 299.65 188.455 299.572C188.662 299.518 188.975 299.465 189.393 299.414C190.244 299.312 190.871 299.191 191.273 299.051C191.277 298.906 191.279 298.814 191.279 298.775C191.279 298.346 191.18 298.043 190.98 297.867C190.711 297.629 190.311 297.51 189.779 297.51C189.283 297.51 188.916 297.598 188.678 297.773C188.443 297.945 188.27 298.252 188.156 298.693L187.125 298.553C187.219 298.111 187.373 297.756 187.588 297.486C187.803 297.213 188.113 297.004 188.52 296.859C188.926 296.711 189.396 296.637 189.932 296.637C190.463 296.637 190.895 296.699 191.227 296.824C191.559 296.949 191.803 297.107 191.959 297.299C192.115 297.486 192.225 297.725 192.287 298.014C192.322 298.193 192.34 298.518 192.34 298.986V300.393C192.34 301.373 192.361 301.994 192.404 302.256C192.451 302.514 192.541 302.762 192.674 303H191.572C191.463 302.781 191.393 302.525 191.361 302.232ZM191.273 299.877C190.891 300.033 190.316 300.166 189.551 300.275C189.117 300.338 188.811 300.408 188.631 300.486C188.451 300.564 188.312 300.68 188.215 300.832C188.117 300.98 188.068 301.146 188.068 301.33C188.068 301.611 188.174 301.846 188.385 302.033C188.6 302.221 188.912 302.314 189.322 302.314C189.729 302.314 190.09 302.227 190.406 302.051C190.723 301.871 190.955 301.627 191.104 301.318C191.217 301.08 191.273 300.729 191.273 300.264V299.877Z" fill="black"/>
<path d="M153.264 175V166.41H154.318V169.492C154.811 168.922 155.432 168.637 156.182 168.637C156.643 168.637 157.043 168.729 157.383 168.912C157.723 169.092 157.965 169.342 158.109 169.662C158.258 169.982 158.332 170.447 158.332 171.057V175H157.277V171.057C157.277 170.529 157.162 170.146 156.932 169.908C156.705 169.666 156.383 169.545 155.965 169.545C155.652 169.545 155.357 169.627 155.08 169.791C154.807 169.951 154.611 170.17 154.494 170.447C154.377 170.725 154.318 171.107 154.318 171.596V175H153.264ZM164.004 174.232C163.613 174.564 163.236 174.799 162.873 174.936C162.514 175.072 162.127 175.141 161.713 175.141C161.029 175.141 160.504 174.975 160.137 174.643C159.77 174.307 159.586 173.879 159.586 173.359C159.586 173.055 159.654 172.777 159.791 172.527C159.932 172.273 160.113 172.07 160.336 171.918C160.562 171.766 160.816 171.65 161.098 171.572C161.305 171.518 161.617 171.465 162.035 171.414C162.887 171.312 163.514 171.191 163.916 171.051C163.92 170.906 163.922 170.814 163.922 170.775C163.922 170.346 163.822 170.043 163.623 169.867C163.354 169.629 162.953 169.51 162.422 169.51C161.926 169.51 161.559 169.598 161.32 169.773C161.086 169.945 160.912 170.252 160.799 170.693L159.768 170.553C159.861 170.111 160.016 169.756 160.23 169.486C160.445 169.213 160.756 169.004 161.162 168.859C161.568 168.711 162.039 168.637 162.574 168.637C163.105 168.637 163.537 168.699 163.869 168.824C164.201 168.949 164.445 169.107 164.602 169.299C164.758 169.486 164.867 169.725 164.93 170.014C164.965 170.193 164.982 170.518 164.982 170.986V172.393C164.982 173.373 165.004 173.994 165.047 174.256C165.094 174.514 165.184 174.762 165.316 175H164.215C164.105 174.781 164.035 174.525 164.004 174.232ZM163.916 171.877C163.533 172.033 162.959 172.166 162.193 172.275C161.76 172.338 161.453 172.408 161.273 172.486C161.094 172.564 160.955 172.68 160.857 172.832C160.76 172.98 160.711 173.146 160.711 173.33C160.711 173.611 160.816 173.846 161.027 174.033C161.242 174.221 161.555 174.314 161.965 174.314C162.371 174.314 162.732 174.227 163.049 174.051C163.365 173.871 163.598 173.627 163.746 173.318C163.859 173.08 163.916 172.729 163.916 172.264V171.877ZM166.201 173.143L167.244 172.979C167.303 173.396 167.465 173.717 167.73 173.939C168 174.162 168.375 174.273 168.855 174.273C169.34 174.273 169.699 174.176 169.934 173.98C170.168 173.781 170.285 173.549 170.285 173.283C170.285 173.045 170.182 172.857 169.975 172.721C169.83 172.627 169.471 172.508 168.896 172.363C168.123 172.168 167.586 172 167.285 171.859C166.988 171.715 166.762 171.518 166.605 171.268C166.453 171.014 166.377 170.734 166.377 170.43C166.377 170.152 166.439 169.896 166.564 169.662C166.693 169.424 166.867 169.227 167.086 169.07C167.25 168.949 167.473 168.848 167.754 168.766C168.039 168.68 168.344 168.637 168.668 168.637C169.156 168.637 169.584 168.707 169.951 168.848C170.322 168.988 170.596 169.18 170.771 169.422C170.947 169.66 171.068 169.98 171.135 170.383L170.104 170.523C170.057 170.203 169.92 169.953 169.693 169.773C169.471 169.594 169.154 169.504 168.744 169.504C168.26 169.504 167.914 169.584 167.707 169.744C167.5 169.904 167.396 170.092 167.396 170.307C167.396 170.443 167.439 170.566 167.525 170.676C167.611 170.789 167.746 170.883 167.93 170.957C168.035 170.996 168.346 171.086 168.861 171.227C169.607 171.426 170.127 171.59 170.42 171.719C170.717 171.844 170.949 172.027 171.117 172.27C171.285 172.512 171.369 172.812 171.369 173.172C171.369 173.523 171.266 173.855 171.059 174.168C170.855 174.477 170.561 174.717 170.174 174.889C169.787 175.057 169.35 175.141 168.861 175.141C168.053 175.141 167.436 174.973 167.01 174.637C166.588 174.301 166.318 173.803 166.201 173.143ZM175.963 175V168.777H176.906V169.65C177.102 169.346 177.361 169.102 177.686 168.918C178.01 168.73 178.379 168.637 178.793 168.637C179.254 168.637 179.631 168.732 179.924 168.924C180.221 169.115 180.43 169.383 180.551 169.727C181.043 169 181.684 168.637 182.473 168.637C183.09 168.637 183.564 168.809 183.896 169.152C184.229 169.492 184.395 170.018 184.395 170.729V175H183.346V171.08C183.346 170.658 183.311 170.355 183.24 170.172C183.174 169.984 183.051 169.834 182.871 169.721C182.691 169.607 182.48 169.551 182.238 169.551C181.801 169.551 181.438 169.697 181.148 169.99C180.859 170.279 180.715 170.744 180.715 171.385V175H179.66V170.957C179.66 170.488 179.574 170.137 179.402 169.902C179.23 169.668 178.949 169.551 178.559 169.551C178.262 169.551 177.986 169.629 177.732 169.785C177.482 169.941 177.301 170.17 177.188 170.471C177.074 170.771 177.018 171.205 177.018 171.771V175H175.963ZM190.02 174.232C189.629 174.564 189.252 174.799 188.889 174.936C188.529 175.072 188.143 175.141 187.729 175.141C187.045 175.141 186.52 174.975 186.152 174.643C185.785 174.307 185.602 173.879 185.602 173.359C185.602 173.055 185.67 172.777 185.807 172.527C185.947 172.273 186.129 172.07 186.352 171.918C186.578 171.766 186.832 171.65 187.113 171.572C187.32 171.518 187.633 171.465 188.051 171.414C188.902 171.312 189.529 171.191 189.932 171.051C189.936 170.906 189.938 170.814 189.938 170.775C189.938 170.346 189.838 170.043 189.639 169.867C189.369 169.629 188.969 169.51 188.438 169.51C187.941 169.51 187.574 169.598 187.336 169.773C187.102 169.945 186.928 170.252 186.814 170.693L185.783 170.553C185.877 170.111 186.031 169.756 186.246 169.486C186.461 169.213 186.771 169.004 187.178 168.859C187.584 168.711 188.055 168.637 188.59 168.637C189.121 168.637 189.553 168.699 189.885 168.824C190.217 168.949 190.461 169.107 190.617 169.299C190.773 169.486 190.883 169.725 190.945 170.014C190.98 170.193 190.998 170.518 190.998 170.986V172.393C190.998 173.373 191.02 173.994 191.062 174.256C191.109 174.514 191.199 174.762 191.332 175H190.23C190.121 174.781 190.051 174.525 190.02 174.232ZM189.932 171.877C189.549 172.033 188.975 172.166 188.209 172.275C187.775 172.338 187.469 172.408 187.289 172.486C187.109 172.564 186.971 172.68 186.873 172.832C186.775 172.98 186.727 173.146 186.727 173.33C186.727 173.611 186.832 173.846 187.043 174.033C187.258 174.221 187.57 174.314 187.98 174.314C188.387 174.314 188.748 174.227 189.064 174.051C189.381 173.871 189.613 173.627 189.762 173.318C189.875 173.08 189.932 172.729 189.932 172.264V171.877ZM192.639 175V168.777H193.588V169.662C194.045 168.979 194.705 168.637 195.568 168.637C195.943 168.637 196.287 168.705 196.6 168.842C196.916 168.975 197.152 169.15 197.309 169.369C197.465 169.588 197.574 169.848 197.637 170.148C197.676 170.344 197.695 170.686 197.695 171.174V175H196.641V171.215C196.641 170.785 196.6 170.465 196.518 170.254C196.436 170.039 196.289 169.869 196.078 169.744C195.871 169.615 195.627 169.551 195.346 169.551C194.896 169.551 194.508 169.693 194.18 169.979C193.855 170.264 193.693 170.805 193.693 171.602V175H192.639ZM199.271 177.396L199.154 176.406C199.385 176.469 199.586 176.5 199.758 176.5C199.992 176.5 200.18 176.461 200.32 176.383C200.461 176.305 200.576 176.195 200.666 176.055C200.732 175.949 200.84 175.688 200.988 175.27C201.008 175.211 201.039 175.125 201.082 175.012L198.721 168.777H199.857L201.152 172.381C201.32 172.838 201.471 173.318 201.604 173.822C201.725 173.338 201.869 172.865 202.037 172.404L203.367 168.777H204.422L202.055 175.105C201.801 175.789 201.604 176.26 201.463 176.518C201.275 176.865 201.061 177.119 200.818 177.279C200.576 177.443 200.287 177.525 199.951 177.525C199.748 177.525 199.521 177.482 199.271 177.396Z" fill="black"/>
<path d="M88.2637 249V240.41H89.3184V243.492C89.8105 242.922 90.4316 242.637 91.1816 242.637C91.6426 242.637 92.043 242.729 92.3828 242.912C92.7227 243.092 92.9648 243.342 93.1094 243.662C93.2578 243.982 93.332 244.447 93.332 245.057V249H92.2773V245.057C92.2773 244.529 92.1621 244.146 91.9316 243.908C91.7051 243.666 91.3828 243.545 90.9648 243.545C90.6523 243.545 90.3574 243.627 90.0801 243.791C89.8066 243.951 89.6113 244.17 89.4941 244.447C89.377 244.725 89.3184 245.107 89.3184 245.596V249H88.2637ZM99.0039 248.232C98.6133 248.564 98.2363 248.799 97.873 248.936C97.5137 249.072 97.127 249.141 96.7129 249.141C96.0293 249.141 95.5039 248.975 95.1367 248.643C94.7695 248.307 94.5859 247.879 94.5859 247.359C94.5859 247.055 94.6543 246.777 94.791 246.527C94.9316 246.273 95.1133 246.07 95.3359 245.918C95.5625 245.766 95.8164 245.65 96.0977 245.572C96.3047 245.518 96.6172 245.465 97.0352 245.414C97.8867 245.312 98.5137 245.191 98.916 245.051C98.9199 244.906 98.9219 244.814 98.9219 244.775C98.9219 244.346 98.8223 244.043 98.623 243.867C98.3535 243.629 97.9531 243.51 97.4219 243.51C96.9258 243.51 96.5586 243.598 96.3203 243.773C96.0859 243.945 95.9121 244.252 95.7988 244.693L94.7676 244.553C94.8613 244.111 95.0156 243.756 95.2305 243.486C95.4453 243.213 95.7559 243.004 96.1621 242.859C96.5684 242.711 97.0391 242.637 97.5742 242.637C98.1055 242.637 98.5371 242.699 98.8691 242.824C99.2012 242.949 99.4453 243.107 99.6016 243.299C99.7578 243.486 99.8672 243.725 99.9297 244.014C99.9648 244.193 99.9824 244.518 99.9824 244.986V246.393C99.9824 247.373 100.004 247.994 100.047 248.256C100.094 248.514 100.184 248.762 100.316 249H99.2148C99.1055 248.781 99.0352 248.525 99.0039 248.232ZM98.916 245.877C98.5332 246.033 97.959 246.166 97.1934 246.275C96.7598 246.338 96.4531 246.408 96.2734 246.486C96.0938 246.564 95.9551 246.68 95.8574 246.832C95.7598 246.98 95.7109 247.146 95.7109 247.33C95.7109 247.611 95.8164 247.846 96.0273 248.033C96.2422 248.221 96.5547 248.314 96.9648 248.314C97.3711 248.314 97.7324 248.227 98.0488 248.051C98.3652 247.871 98.5977 247.627 98.7461 247.318C98.8594 247.08 98.916 246.729 98.916 246.264V245.877ZM101.201 247.143L102.244 246.979C102.303 247.396 102.465 247.717 102.73 247.939C103 248.162 103.375 248.273 103.855 248.273C104.34 248.273 104.699 248.176 104.934 247.98C105.168 247.781 105.285 247.549 105.285 247.283C105.285 247.045 105.182 246.857 104.975 246.721C104.83 246.627 104.471 246.508 103.896 246.363C103.123 246.168 102.586 246 102.285 245.859C101.988 245.715 101.762 245.518 101.605 245.268C101.453 245.014 101.377 244.734 101.377 244.43C101.377 244.152 101.439 243.896 101.564 243.662C101.693 243.424 101.867 243.227 102.086 243.07C102.25 242.949 102.473 242.848 102.754 242.766C103.039 242.68 103.344 242.637 103.668 242.637C104.156 242.637 104.584 242.707 104.951 242.848C105.322 242.988 105.596 243.18 105.771 243.422C105.947 243.66 106.068 243.98 106.135 244.383L105.104 244.523C105.057 244.203 104.92 243.953 104.693 243.773C104.471 243.594 104.154 243.504 103.744 243.504C103.26 243.504 102.914 243.584 102.707 243.744C102.5 243.904 102.396 244.092 102.396 244.307C102.396 244.443 102.439 244.566 102.525 244.676C102.611 244.789 102.746 244.883 102.93 244.957C103.035 244.996 103.346 245.086 103.861 245.227C104.607 245.426 105.127 245.59 105.42 245.719C105.717 245.844 105.949 246.027 106.117 246.27C106.285 246.512 106.369 246.812 106.369 247.172C106.369 247.523 106.266 247.855 106.059 248.168C105.855 248.477 105.561 248.717 105.174 248.889C104.787 249.057 104.35 249.141 103.861 249.141C103.053 249.141 102.436 248.973 102.01 248.637C101.588 248.301 101.318 247.803 101.201 247.143ZM110.963 249V242.777H111.906V243.65C112.102 243.346 112.361 243.102 112.686 242.918C113.01 242.73 113.379 242.637 113.793 242.637C114.254 242.637 114.631 242.732 114.924 242.924C115.221 243.115 115.43 243.383 115.551 243.727C116.043 243 116.684 242.637 117.473 242.637C118.09 242.637 118.564 242.809 118.896 243.152C119.229 243.492 119.395 244.018 119.395 244.729V249H118.346V245.08C118.346 244.658 118.311 244.355 118.24 244.172C118.174 243.984 118.051 243.834 117.871 243.721C117.691 243.607 117.48 243.551 117.238 243.551C116.801 243.551 116.438 243.697 116.148 243.99C115.859 244.279 115.715 244.744 115.715 245.385V249H114.66V244.957C114.66 244.488 114.574 244.137 114.402 243.902C114.23 243.668 113.949 243.551 113.559 243.551C113.262 243.551 112.986 243.629 112.732 243.785C112.482 243.941 112.301 244.17 112.188 244.471C112.074 244.771 112.018 245.205 112.018 245.771V249H110.963ZM125.02 248.232C124.629 248.564 124.252 248.799 123.889 248.936C123.529 249.072 123.143 249.141 122.729 249.141C122.045 249.141 121.52 248.975 121.152 248.643C120.785 248.307 120.602 247.879 120.602 247.359C120.602 247.055 120.67 246.777 120.807 246.527C120.947 246.273 121.129 246.07 121.352 245.918C121.578 245.766 121.832 245.65 122.113 245.572C122.32 245.518 122.633 245.465 123.051 245.414C123.902 245.312 124.529 245.191 124.932 245.051C124.936 244.906 124.938 244.814 124.938 244.775C124.938 244.346 124.838 244.043 124.639 243.867C124.369 243.629 123.969 243.51 123.438 243.51C122.941 243.51 122.574 243.598 122.336 243.773C122.102 243.945 121.928 244.252 121.814 244.693L120.783 244.553C120.877 244.111 121.031 243.756 121.246 243.486C121.461 243.213 121.771 243.004 122.178 242.859C122.584 242.711 123.055 242.637 123.59 242.637C124.121 242.637 124.553 242.699 124.885 242.824C125.217 242.949 125.461 243.107 125.617 243.299C125.773 243.486 125.883 243.725 125.945 244.014C125.98 244.193 125.998 244.518 125.998 244.986V246.393C125.998 247.373 126.02 247.994 126.062 248.256C126.109 248.514 126.199 248.762 126.332 249H125.23C125.121 248.781 125.051 248.525 125.02 248.232ZM124.932 245.877C124.549 246.033 123.975 246.166 123.209 246.275C122.775 246.338 122.469 246.408 122.289 246.486C122.109 246.564 121.971 246.68 121.873 246.832C121.775 246.98 121.727 247.146 121.727 247.33C121.727 247.611 121.832 247.846 122.043 248.033C122.258 248.221 122.57 248.314 122.98 248.314C123.387 248.314 123.748 248.227 124.064 248.051C124.381 247.871 124.613 247.627 124.762 247.318C124.875 247.08 124.932 246.729 124.932 246.264V245.877ZM127.639 249V242.777H128.588V243.662C129.045 242.979 129.705 242.637 130.568 242.637C130.943 242.637 131.287 242.705 131.6 242.842C131.916 242.975 132.152 243.15 132.309 243.369C132.465 243.588 132.574 243.848 132.637 244.148C132.676 244.344 132.695 244.686 132.695 245.174V249H131.641V245.215C131.641 244.785 131.6 244.465 131.518 244.254C131.436 244.039 131.289 243.869 131.078 243.744C130.871 243.615 130.627 243.551 130.346 243.551C129.896 243.551 129.508 243.693 129.18 243.979C128.855 244.264 128.693 244.805 128.693 245.602V249H127.639ZM134.271 251.396L134.154 250.406C134.385 250.469 134.586 250.5 134.758 250.5C134.992 250.5 135.18 250.461 135.32 250.383C135.461 250.305 135.576 250.195 135.666 250.055C135.732 249.949 135.84 249.688 135.988 249.27C136.008 249.211 136.039 249.125 136.082 249.012L133.721 242.777H134.857L136.152 246.381C136.32 246.838 136.471 247.318 136.604 247.822C136.725 247.338 136.869 246.865 137.037 246.404L138.367 242.777H139.422L137.055 249.105C136.801 249.789 136.604 250.26 136.463 250.518C136.275 250.865 136.061 251.119 135.818 251.279C135.576 251.443 135.287 251.525 134.951 251.525C134.748 251.525 134.521 251.482 134.271 251.396Z" fill="black"/>
<path d="M88.2637 120V111.41H89.3184V114.492C89.8105 113.922 90.4316 113.637 91.1816 113.637C91.6426 113.637 92.043 113.729 92.3828 113.912C92.7227 114.092 92.9648 114.342 93.1094 114.662C93.2578 114.982 93.332 115.447 93.332 116.057V120H92.2773V116.057C92.2773 115.529 92.1621 115.146 91.9316 114.908C91.7051 114.666 91.3828 114.545 90.9648 114.545C90.6523 114.545 90.3574 114.627 90.0801 114.791C89.8066 114.951 89.6113 115.17 89.4941 115.447C89.377 115.725 89.3184 116.107 89.3184 116.596V120H88.2637ZM99.0039 119.232C98.6133 119.564 98.2363 119.799 97.873 119.936C97.5137 120.072 97.127 120.141 96.7129 120.141C96.0293 120.141 95.5039 119.975 95.1367 119.643C94.7695 119.307 94.5859 118.879 94.5859 118.359C94.5859 118.055 94.6543 117.777 94.791 117.527C94.9316 117.273 95.1133 117.07 95.3359 116.918C95.5625 116.766 95.8164 116.65 96.0977 116.572C96.3047 116.518 96.6172 116.465 97.0352 116.414C97.8867 116.312 98.5137 116.191 98.916 116.051C98.9199 115.906 98.9219 115.814 98.9219 115.775C98.9219 115.346 98.8223 115.043 98.623 114.867C98.3535 114.629 97.9531 114.51 97.4219 114.51C96.9258 114.51 96.5586 114.598 96.3203 114.773C96.0859 114.945 95.9121 115.252 95.7988 115.693L94.7676 115.553C94.8613 115.111 95.0156 114.756 95.2305 114.486C95.4453 114.213 95.7559 114.004 96.1621 113.859C96.5684 113.711 97.0391 113.637 97.5742 113.637C98.1055 113.637 98.5371 113.699 98.8691 113.824C99.2012 113.949 99.4453 114.107 99.6016 114.299C99.7578 114.486 99.8672 114.725 99.9297 115.014C99.9648 115.193 99.9824 115.518 99.9824 115.986V117.393C99.9824 118.373 100.004 118.994 100.047 119.256C100.094 119.514 100.184 119.762 100.316 120H99.2148C99.1055 119.781 99.0352 119.525 99.0039 119.232ZM98.916 116.877C98.5332 117.033 97.959 117.166 97.1934 117.275C96.7598 117.338 96.4531 117.408 96.2734 117.486C96.0938 117.564 95.9551 117.68 95.8574 117.832C95.7598 117.98 95.7109 118.146 95.7109 118.33C95.7109 118.611 95.8164 118.846 96.0273 119.033C96.2422 119.221 96.5547 119.314 96.9648 119.314C97.3711 119.314 97.7324 119.227 98.0488 119.051C98.3652 118.871 98.5977 118.627 98.7461 118.318C98.8594 118.08 98.916 117.729 98.916 117.264V116.877ZM101.201 118.143L102.244 117.979C102.303 118.396 102.465 118.717 102.73 118.939C103 119.162 103.375 119.273 103.855 119.273C104.34 119.273 104.699 119.176 104.934 118.98C105.168 118.781 105.285 118.549 105.285 118.283C105.285 118.045 105.182 117.857 104.975 117.721C104.83 117.627 104.471 117.508 103.896 117.363C103.123 117.168 102.586 117 102.285 116.859C101.988 116.715 101.762 116.518 101.605 116.268C101.453 116.014 101.377 115.734 101.377 115.43C101.377 115.152 101.439 114.896 101.564 114.662C101.693 114.424 101.867 114.227 102.086 114.07C102.25 113.949 102.473 113.848 102.754 113.766C103.039 113.68 103.344 113.637 103.668 113.637C104.156 113.637 104.584 113.707 104.951 113.848C105.322 113.988 105.596 114.18 105.771 114.422C105.947 114.66 106.068 114.98 106.135 115.383L105.104 115.523C105.057 115.203 104.92 114.953 104.693 114.773C104.471 114.594 104.154 114.504 103.744 114.504C103.26 114.504 102.914 114.584 102.707 114.744C102.5 114.904 102.396 115.092 102.396 115.307C102.396 115.443 102.439 115.566 102.525 115.676C102.611 115.789 102.746 115.883 102.93 115.957C103.035 115.996 103.346 116.086 103.861 116.227C104.607 116.426 105.127 116.59 105.42 116.719C105.717 116.844 105.949 117.027 106.117 117.27C106.285 117.512 106.369 117.812 106.369 118.172C106.369 118.523 106.266 118.855 106.059 119.168C105.855 119.477 105.561 119.717 105.174 119.889C104.787 120.057 104.35 120.141 103.861 120.141C103.053 120.141 102.436 119.973 102.01 119.637C101.588 119.301 101.318 118.803 101.201 118.143ZM110.963 120V113.777H111.906V114.65C112.102 114.346 112.361 114.102 112.686 113.918C113.01 113.73 113.379 113.637 113.793 113.637C114.254 113.637 114.631 113.732 114.924 113.924C115.221 114.115 115.43 114.383 115.551 114.727C116.043 114 116.684 113.637 117.473 113.637C118.09 113.637 118.564 113.809 118.896 114.152C119.229 114.492 119.395 115.018 119.395 115.729V120H118.346V116.08C118.346 115.658 118.311 115.355 118.24 115.172C118.174 114.984 118.051 114.834 117.871 114.721C117.691 114.607 117.48 114.551 117.238 114.551C116.801 114.551 116.438 114.697 116.148 114.99C115.859 115.279 115.715 115.744 115.715 116.385V120H114.66V115.957C114.66 115.488 114.574 115.137 114.402 114.902C114.23 114.668 113.949 114.551 113.559 114.551C113.262 114.551 112.986 114.629 112.732 114.785C112.482 114.941 112.301 115.17 112.188 115.471C112.074 115.771 112.018 116.205 112.018 116.771V120H110.963ZM125.02 119.232C124.629 119.564 124.252 119.799 123.889 119.936C123.529 120.072 123.143 120.141 122.729 120.141C122.045 120.141 121.52 119.975 121.152 119.643C120.785 119.307 120.602 118.879 120.602 118.359C120.602 118.055 120.67 117.777 120.807 117.527C120.947 117.273 121.129 117.07 121.352 116.918C121.578 116.766 121.832 116.65 122.113 116.572C122.32 116.518 122.633 116.465 123.051 116.414C123.902 116.312 124.529 116.191 124.932 116.051C124.936 115.906 124.938 115.814 124.938 115.775C124.938 115.346 124.838 115.043 124.639 114.867C124.369 114.629 123.969 114.51 123.438 114.51C122.941 114.51 122.574 114.598 122.336 114.773C122.102 114.945 121.928 115.252 121.814 115.693L120.783 115.553C120.877 115.111 121.031 114.756 121.246 114.486C121.461 114.213 121.771 114.004 122.178 113.859C122.584 113.711 123.055 113.637 123.59 113.637C124.121 113.637 124.553 113.699 124.885 113.824C125.217 113.949 125.461 114.107 125.617 114.299C125.773 114.486 125.883 114.725 125.945 115.014C125.98 115.193 125.998 115.518 125.998 115.986V117.393C125.998 118.373 126.02 118.994 126.062 119.256C126.109 119.514 126.199 119.762 126.332 120H125.23C125.121 119.781 125.051 119.525 125.02 119.232ZM124.932 116.877C124.549 117.033 123.975 117.166 123.209 117.275C122.775 117.338 122.469 117.408 122.289 117.486C122.109 117.564 121.971 117.68 121.873 117.832C121.775 117.98 121.727 118.146 121.727 118.33C121.727 118.611 121.832 118.846 122.043 119.033C122.258 119.221 122.57 119.314 122.98 119.314C123.387 119.314 123.748 119.227 124.064 119.051C124.381 118.871 124.613 118.627 124.762 118.318C124.875 118.08 124.932 117.729 124.932 117.264V116.877ZM127.639 120V113.777H128.588V114.662C129.045 113.979 129.705 113.637 130.568 113.637C130.943 113.637 131.287 113.705 131.6 113.842C131.916 113.975 132.152 114.15 132.309 114.369C132.465 114.588 132.574 114.848 132.637 115.148C132.676 115.344 132.695 115.686 132.695 116.174V120H131.641V116.215C131.641 115.785 131.6 115.465 131.518 115.254C131.436 115.039 131.289 114.869 131.078 114.744C130.871 114.615 130.627 114.551 130.346 114.551C129.896 114.551 129.508 114.693 129.18 114.979C128.855 115.264 128.693 115.805 128.693 116.602V120H127.639ZM134.271 122.396L134.154 121.406C134.385 121.469 134.586 121.5 134.758 121.5C134.992 121.5 135.18 121.461 135.32 121.383C135.461 121.305 135.576 121.195 135.666 121.055C135.732 120.949 135.84 120.688 135.988 120.27C136.008 120.211 136.039 120.125 136.082 120.012L133.721 113.777H134.857L136.152 117.381C136.32 117.838 136.471 118.318 136.604 118.822C136.725 118.338 136.869 117.865 137.037 117.404L138.367 113.777H139.422L137.055 120.105C136.801 120.789 136.604 121.26 136.463 121.518C136.275 121.865 136.061 122.119 135.818 122.279C135.576 122.443 135.287 122.525 134.951 122.525C134.748 122.525 134.521 122.482 134.271 122.396Z" fill="black"/>
<path d="M220 184L210 178.226V189.774L220 184ZM147 185H211V183H147V185Z" fill="#5AC09E"/>
<path d="M220 311L210 305.226V316.774L220 311ZM147 312H211V310H147V312Z" fill="#5AC09E"/>
<path d="M80 140L85.7735 130H74.2265L80 140ZM79 99V131H81V99H79Z" fill="#5AC09E"/>
<path d="M80 269L85.7735 259H74.2265L80 269ZM79 228V260H81V228H79Z" fill="#5AC09E"/>
</svg>
