<svg width="256" height="556" viewBox="0 0 256 556" fill="none" xmlns="http://www.w3.org/2000/svg">
<mask id="mask0" mask-type="alpha" maskUnits="userSpaceOnUse" x="0" y="0" width="256" height="556">
<rect width="256" height="556" fill="#C4C4C4"/>
</mask>
<g mask="url(#mask0)">
<circle cx="289.205" cy="60.022" r="241.058" transform="rotate(-60 289.205 60.022)" stroke="#58C19F" stroke-opacity="0.5" stroke-width="3"/>
<circle cx="289.204" cy="60.0221" r="255.539" transform="rotate(-60 289.204 60.0221)" stroke="#58C19F" stroke-opacity="0.5" stroke-width="3"/>
<circle cx="289.204" cy="60.0219" r="270.02" transform="rotate(-60 289.204 60.0219)" stroke="#58C19F" stroke-opacity="0.5" stroke-width="3"/>
<circle cx="286.732" cy="60.6846" r="284.501" transform="rotate(-60 286.732 60.6846)" stroke="#58C19F" stroke-opacity="0.5" stroke-width="3"/>
<circle cx="289.205" cy="60.0221" r="226.576" transform="rotate(-60 289.205 60.0221)" stroke="#58C19F" stroke-opacity="0.5" stroke-width="3"/>
<circle cx="289.204" cy="60.022" r="212.095" transform="rotate(-60 289.204 60.022)" stroke="#58C19F" stroke-opacity="0.5" stroke-width="3"/>
<circle cx="289.204" cy="60.0221" r="197.614" transform="rotate(-60 289.204 60.0221)" stroke="#58C19F" stroke-opacity="0.5" stroke-width="3"/>
<circle cx="289.205" cy="60.0218" r="183.133" transform="rotate(-60 289.205 60.0218)" stroke="#58C19F" stroke-opacity="0.5" stroke-width="3"/>
<circle cx="289.205" cy="60.0219" r="168.652" transform="rotate(-60 289.205 60.0219)" stroke="#58C19F" stroke-opacity="0.5" stroke-width="3"/>
<circle cx="289.205" cy="60.0218" r="154.171" transform="rotate(-60 289.205 60.0218)" stroke="#58C19F" stroke-opacity="0.5" stroke-width="3"/>
<circle cx="289.205" cy="60.022" r="241.058" transform="rotate(-60 289.205 60.022)" stroke="#58C19F" stroke-opacity="0.5" stroke-width="3"/>
<circle cx="289.204" cy="60.0221" r="255.539" transform="rotate(-60 289.204 60.0221)" stroke="#58C19F" stroke-opacity="0.5" stroke-width="3"/>
<circle cx="289.204" cy="60.0219" r="270.02" transform="rotate(-60 289.204 60.0219)" stroke="#58C19F" stroke-opacity="0.5" stroke-width="3"/>
<circle cx="286.732" cy="60.6846" r="284.501" transform="rotate(-60 286.732 60.6846)" stroke="#58C19F" stroke-opacity="0.5" stroke-width="3"/>
<circle cx="289.205" cy="60.0221" r="226.576" transform="rotate(-60 289.205 60.0221)" stroke="#58C19F" stroke-opacity="0.5" stroke-width="3"/>
<circle cx="289.204" cy="60.022" r="212.095" transform="rotate(-60 289.204 60.022)" stroke="#58C19F" stroke-opacity="0.5" stroke-width="3"/>
<circle cx="289.204" cy="60.0221" r="197.614" transform="rotate(-60 289.204 60.0221)" stroke="#58C19F" stroke-opacity="0.5" stroke-width="3"/>
<circle cx="289.205" cy="60.0218" r="183.133" transform="rotate(-60 289.205 60.0218)" stroke="#58C19F" stroke-opacity="0.5" stroke-width="3"/>
<circle cx="289.205" cy="60.0219" r="168.652" transform="rotate(-60 289.205 60.0219)" stroke="#58C19F" stroke-opacity="0.5" stroke-width="3"/>
<circle cx="289.205" cy="60.0218" r="154.171" transform="rotate(-60 289.205 60.0218)" stroke="#58C19F" stroke-opacity="0.5" stroke-width="3"/>
<circle cx="289.205" cy="494.021" r="241.058" transform="rotate(-60 289.205 494.021)" stroke="#58C19F" stroke-opacity="0.5" stroke-width="3"/>
<circle cx="289.204" cy="494.021" r="255.539" transform="rotate(-60 289.204 494.021)" stroke="#58C19F" stroke-opacity="0.5" stroke-width="3"/>
<circle cx="289.204" cy="494.021" r="270.02" transform="rotate(-60 289.204 494.021)" stroke="#58C19F" stroke-opacity="0.5" stroke-width="3"/>
<circle cx="286.732" cy="494.684" r="284.501" transform="rotate(-60 286.732 494.684)" stroke="#58C19F" stroke-opacity="0.5" stroke-width="3"/>
<circle cx="289.205" cy="494.021" r="226.576" transform="rotate(-60 289.205 494.021)" stroke="#58C19F" stroke-opacity="0.5" stroke-width="3"/>
<circle cx="289.204" cy="494.021" r="212.095" transform="rotate(-60 289.204 494.021)" stroke="#58C19F" stroke-opacity="0.5" stroke-width="3"/>
<circle cx="289.204" cy="494.021" r="197.614" transform="rotate(-60 289.204 494.021)" stroke="#58C19F" stroke-opacity="0.5" stroke-width="3"/>
<circle cx="289.205" cy="494.021" r="183.133" transform="rotate(-60 289.205 494.021)" stroke="#58C19F" stroke-opacity="0.5" stroke-width="3"/>
<circle cx="289.205" cy="494.021" r="168.652" transform="rotate(-60 289.205 494.021)" stroke="#58C19F" stroke-opacity="0.5" stroke-width="3"/>
<circle cx="289.205" cy="494.021" r="154.171" transform="rotate(-60 289.205 494.021)" stroke="#58C19F" stroke-opacity="0.5" stroke-width="3"/>
<circle cx="289.205" cy="494.021" r="241.058" transform="rotate(-60 289.205 494.021)" stroke="#58C19F" stroke-opacity="0.5" stroke-width="3"/>
<circle cx="289.204" cy="494.021" r="255.539" transform="rotate(-60 289.204 494.021)" stroke="#58C19F" stroke-opacity="0.5" stroke-width="3"/>
<circle cx="289.204" cy="494.021" r="270.02" transform="rotate(-60 289.204 494.021)" stroke="#58C19F" stroke-opacity="0.5" stroke-width="3"/>
<circle cx="286.732" cy="494.684" r="284.501" transform="rotate(-60 286.732 494.684)" stroke="#58C19F" stroke-opacity="0.5" stroke-width="3"/>
<circle cx="289.205" cy="494.021" r="226.576" transform="rotate(-60 289.205 494.021)" stroke="#58C19F" stroke-opacity="0.5" stroke-width="3"/>
<circle cx="289.204" cy="494.021" r="212.095" transform="rotate(-60 289.204 494.021)" stroke="#58C19F" stroke-opacity="0.5" stroke-width="3"/>
<circle cx="289.204" cy="494.021" r="197.614" transform="rotate(-60 289.204 494.021)" stroke="#58C19F" stroke-opacity="0.5" stroke-width="3"/>
<circle cx="289.205" cy="494.021" r="183.133" transform="rotate(-60 289.205 494.021)" stroke="#58C19F" stroke-opacity="0.5" stroke-width="3"/>
<circle cx="289.205" cy="494.021" r="168.652" transform="rotate(-60 289.205 494.021)" stroke="#58C19F" stroke-opacity="0.5" stroke-width="3"/>
<circle cx="289.205" cy="494.021" r="154.171" transform="rotate(-60 289.205 494.021)" stroke="#58C19F" stroke-opacity="0.5" stroke-width="3"/>
</g>
</svg>
