<svg width="340" height="166" viewBox="0 0 340 166" fill="none" xmlns="http://www.w3.org/2000/svg">
<mask id="mask0" mask-type="alpha" maskUnits="userSpaceOnUse" x="0" y="0" width="340" height="166">
<rect x="340" width="166" height="340" transform="rotate(90 340 0)" fill="#C4C4C4"/>
</mask>
<g mask="url(#mask0)">
<circle cx="303.295" cy="177.42" r="146.827" transform="rotate(30 303.295 177.42)" stroke="#58C19F" stroke-opacity="0.5" stroke-width="3"/>
<circle cx="303.295" cy="177.419" r="155.682" transform="rotate(30 303.295 177.419)" stroke="#58C19F" stroke-opacity="0.5" stroke-width="3"/>
<circle cx="303.295" cy="177.42" r="164.537" transform="rotate(30 303.295 177.42)" stroke="#58C19F" stroke-opacity="0.5" stroke-width="3"/>
<circle cx="302.89" cy="175.908" r="173.392" transform="rotate(30 302.89 175.908)" stroke="#58C19F" stroke-opacity="0.5" stroke-width="3"/>
<circle cx="303.295" cy="177.42" r="137.971" transform="rotate(30 303.295 177.42)" stroke="#58C19F" stroke-opacity="0.5" stroke-width="3"/>
<circle cx="303.295" cy="177.42" r="129.116" transform="rotate(30 303.295 177.42)" stroke="#58C19F" stroke-opacity="0.5" stroke-width="3"/>
<circle cx="303.295" cy="177.42" r="120.261" transform="rotate(30 303.295 177.42)" stroke="#58C19F" stroke-opacity="0.5" stroke-width="3"/>
<circle cx="303.295" cy="177.419" r="111.405" transform="rotate(30 303.295 177.419)" stroke="#58C19F" stroke-opacity="0.5" stroke-width="3"/>
<circle cx="303.295" cy="177.42" r="102.55" transform="rotate(30 303.295 177.42)" stroke="#58C19F" stroke-opacity="0.5" stroke-width="3"/>
<circle cx="303.296" cy="177.42" r="93.6946" transform="rotate(30 303.296 177.42)" stroke="#58C19F" stroke-opacity="0.5" stroke-width="3"/>
<circle cx="303.295" cy="177.42" r="146.827" transform="rotate(30 303.295 177.42)" stroke="#58C19F" stroke-opacity="0.5" stroke-width="3"/>
<circle cx="303.295" cy="177.419" r="155.682" transform="rotate(30 303.295 177.419)" stroke="#58C19F" stroke-opacity="0.5" stroke-width="3"/>
<circle cx="303.295" cy="177.42" r="164.537" transform="rotate(30 303.295 177.42)" stroke="#58C19F" stroke-opacity="0.5" stroke-width="3"/>
<circle cx="302.89" cy="175.908" r="173.392" transform="rotate(30 302.89 175.908)" stroke="#58C19F" stroke-opacity="0.5" stroke-width="3"/>
<circle cx="303.295" cy="177.42" r="137.971" transform="rotate(30 303.295 177.42)" stroke="#58C19F" stroke-opacity="0.5" stroke-width="3"/>
<circle cx="303.295" cy="177.42" r="129.116" transform="rotate(30 303.295 177.42)" stroke="#58C19F" stroke-opacity="0.5" stroke-width="3"/>
<circle cx="303.295" cy="177.42" r="120.261" transform="rotate(30 303.295 177.42)" stroke="#58C19F" stroke-opacity="0.5" stroke-width="3"/>
<circle cx="303.295" cy="177.419" r="111.405" transform="rotate(30 303.295 177.419)" stroke="#58C19F" stroke-opacity="0.5" stroke-width="3"/>
<circle cx="303.295" cy="177.42" r="102.55" transform="rotate(30 303.295 177.42)" stroke="#58C19F" stroke-opacity="0.5" stroke-width="3"/>
<circle cx="303.296" cy="177.42" r="93.6946" transform="rotate(30 303.296 177.42)" stroke="#58C19F" stroke-opacity="0.5" stroke-width="3"/>
<circle cx="37.8997" cy="177.42" r="146.827" transform="rotate(30 37.8997 177.42)" stroke="#58C19F" stroke-opacity="0.5" stroke-width="3"/>
<circle cx="37.8997" cy="177.419" r="155.682" transform="rotate(30 37.8997 177.419)" stroke="#58C19F" stroke-opacity="0.5" stroke-width="3"/>
<circle cx="37.8998" cy="177.42" r="164.537" transform="rotate(30 37.8998 177.42)" stroke="#58C19F" stroke-opacity="0.5" stroke-width="3"/>
<circle cx="37.4946" cy="175.908" r="173.392" transform="rotate(30 37.4946 175.908)" stroke="#58C19F" stroke-opacity="0.5" stroke-width="3"/>
<circle cx="37.8996" cy="177.42" r="137.971" transform="rotate(30 37.8996 177.42)" stroke="#58C19F" stroke-opacity="0.5" stroke-width="3"/>
<circle cx="37.8996" cy="177.42" r="129.116" transform="rotate(30 37.8996 177.42)" stroke="#58C19F" stroke-opacity="0.5" stroke-width="3"/>
<circle cx="37.8995" cy="177.42" r="120.261" transform="rotate(30 37.8995 177.42)" stroke="#58C19F" stroke-opacity="0.5" stroke-width="3"/>
<circle cx="37.8994" cy="177.419" r="111.405" transform="rotate(30 37.8994 177.419)" stroke="#58C19F" stroke-opacity="0.5" stroke-width="3"/>
<circle cx="37.8994" cy="177.42" r="102.55" transform="rotate(30 37.8994 177.42)" stroke="#58C19F" stroke-opacity="0.5" stroke-width="3"/>
<circle cx="37.9003" cy="177.42" r="93.6946" transform="rotate(30 37.9003 177.42)" stroke="#58C19F" stroke-opacity="0.5" stroke-width="3"/>
<circle cx="37.8997" cy="177.42" r="146.827" transform="rotate(30 37.8997 177.42)" stroke="#58C19F" stroke-opacity="0.5" stroke-width="3"/>
<circle cx="37.8997" cy="177.419" r="155.682" transform="rotate(30 37.8997 177.419)" stroke="#58C19F" stroke-opacity="0.5" stroke-width="3"/>
<circle cx="37.8998" cy="177.42" r="164.537" transform="rotate(30 37.8998 177.42)" stroke="#58C19F" stroke-opacity="0.5" stroke-width="3"/>
<circle cx="37.4946" cy="175.908" r="173.392" transform="rotate(30 37.4946 175.908)" stroke="#58C19F" stroke-opacity="0.5" stroke-width="3"/>
<circle cx="37.8996" cy="177.42" r="137.971" transform="rotate(30 37.8996 177.42)" stroke="#58C19F" stroke-opacity="0.5" stroke-width="3"/>
<circle cx="37.8996" cy="177.42" r="129.116" transform="rotate(30 37.8996 177.42)" stroke="#58C19F" stroke-opacity="0.5" stroke-width="3"/>
<circle cx="37.8995" cy="177.42" r="120.261" transform="rotate(30 37.8995 177.42)" stroke="#58C19F" stroke-opacity="0.5" stroke-width="3"/>
<circle cx="37.8994" cy="177.419" r="111.405" transform="rotate(30 37.8994 177.419)" stroke="#58C19F" stroke-opacity="0.5" stroke-width="3"/>
<circle cx="37.8994" cy="177.42" r="102.55" transform="rotate(30 37.8994 177.42)" stroke="#58C19F" stroke-opacity="0.5" stroke-width="3"/>
<circle cx="37.9003" cy="177.42" r="93.6946" transform="rotate(30 37.9003 177.42)" stroke="#58C19F" stroke-opacity="0.5" stroke-width="3"/>
</g>
</svg>
