<svg width="24" height="24" viewBox="0 0 24 24" fill="none" xmlns="http://www.w3.org/2000/svg">
<rect x="1" y="1" width="22" height="22" fill="#418F76" stroke="#418F76" stroke-width="2"/>
<path d="M4 13.1006C4.44025 13.5335 4.91719 14.0105 5.43082 14.5314C5.95178 15.0524 6.41405 15.5183 6.81761 15.9292C7.22851 16.3328 7.71279 16.8171 8.27044 17.3821C8.82809 17.9397 9.29769 18.4057 9.67925 18.7799L9.89937 19C11.2421 17.6499 13.1426 15.7348 15.6006 13.2547C18.066 10.7673 19.7463 9.07233 20.6415 8.16981L20.8506 7.94969L17.9009 5L9.85535 13.0456C8.88679 12.077 7.92191 11.1122 6.96069 10.1509C6.65252 10.4518 5.74266 11.3616 4.23113 12.8805L4 13.1006Z" fill="white"/>
</svg>
